<svg width="142" height="142" viewBox="0 0 142 142" fill="none" xmlns="http://www.w3.org/2000/svg">
<path d="M3.86019 42.557C3.81647 43.2055 3.72175 44.7138 3.63431 46.8414C3.54688 48.969 3.47401 51.7378 3.47401 54.9584C3.47401 60.5543 3.69989 67.52 4.50867 74.9157C5.11344 80.4679 6.0461 86.2605 7.47422 91.9147C8.54531 96.1554 9.886 100.323 11.5983 104.258C14.1631 110.152 17.5439 115.544 22.1343 119.756C24.4222 121.854 27.0162 123.647 29.9161 125.002C32.8161 126.365 36.0075 127.283 39.4613 127.683L39.709 127.705C40.9039 127.771 42.0916 127.8 43.272 127.8C52.0156 127.8 60.1763 126.037 67.6594 122.962C74.2098 120.28 80.2575 116.608 85.8097 112.273C95.5297 104.68 103.756 95.0697 110.693 84.949C121.083 69.7642 128.566 53.421 133.492 40.8302C138.41 28.2394 140.756 19.4156 140.785 19.3063C141.361 17.1423 140.071 14.9127 137.9 14.337C135.736 13.7614 133.506 15.0511 132.93 17.2224C132.901 17.3317 131.138 23.9113 127.517 33.6823C122.088 48.3351 112.427 70.1796 98.3349 88.0748C91.2963 97.0224 83.1647 104.972 74.0058 110.626C69.4227 113.453 64.5918 115.719 59.4768 117.271C54.3691 118.83 48.9772 119.683 43.2647 119.683C42.2374 119.683 41.1954 119.654 40.1389 119.596L39.9203 123.647L40.3866 119.617C37.2827 119.253 34.6013 118.371 32.1968 117.067C30.091 115.923 28.1966 114.444 26.4624 112.659C23.4313 109.533 20.9175 105.438 18.9065 100.738C15.8827 93.6853 14.0174 85.3133 12.9463 77.1745C11.8752 69.0356 11.5764 61.1299 11.5764 54.9584C11.5764 51.869 11.6493 49.2095 11.7294 47.1766C11.8096 45.1364 11.9043 43.7301 11.948 43.0889C12.0938 40.852 10.396 38.9212 8.15914 38.7754C5.92223 38.6297 3.99135 40.3274 3.84562 42.5643L3.86019 42.557Z" fill="#E119A0"/>
<path d="M3.68521 42.2222C3.66336 42.3606 2.84 48.248 2.84 56.518C2.84 61.3051 3.11688 66.8937 4.0131 72.6572C4.68344 76.978 5.70353 81.3936 7.24824 85.6488C8.40676 88.8402 9.85675 91.9369 11.7002 94.815C14.4544 99.1285 18.1195 102.968 22.8629 105.686C27.599 108.411 33.3625 109.949 40.0368 109.941C46.7256 109.941 53.0575 108.557 58.923 106.182C69.2113 102.007 78.0933 94.8587 85.7003 86.6251C97.1034 74.2602 105.709 59.3597 111.538 47.5121C117.359 35.6645 120.383 26.8699 120.427 26.7533C121.192 24.5237 120.004 22.09 117.775 21.3249C115.545 20.5599 113.111 21.7476 112.346 23.9772L113.002 24.2031L112.346 23.9772L113.002 24.2031L112.346 23.9772C112.325 24.0428 110.605 29.0266 107.297 36.4368C102.35 47.5485 93.7881 64.1249 82.2393 77.6557C76.4758 84.4247 69.9691 90.414 62.9086 94.6474C59.3747 96.7677 55.7097 98.4509 51.8989 99.6094C48.0955 100.768 44.1536 101.395 40.0368 101.395C36.8454 101.395 34.0765 100.972 31.6575 100.229C29.5372 99.5803 27.6791 98.6913 26.0106 97.5911C23.096 95.6748 20.728 93.11 18.7825 90.0206C15.868 85.401 13.9662 79.6011 12.8587 73.6482C11.7366 67.7025 11.3942 61.633 11.3942 56.518C11.3942 52.6708 11.5909 49.3555 11.7803 47.0239C11.8751 45.8581 11.9698 44.94 12.0427 44.3206C12.0791 44.0073 12.1082 43.7742 12.1301 43.6212C12.1374 43.541 12.1447 43.49 12.1519 43.4536V43.4171L10.7165 43.2204L12.1519 43.4244L10.7165 43.2204L12.1519 43.4244C12.4798 41.0855 10.855 38.9288 8.51605 38.5936C6.17714 38.2584 4.02039 39.8905 3.68521 42.2295V42.2222Z" fill="#00AEFF"/>
<path d="M3.64165 42.7902V42.8922C3.64165 43.5261 3.67079 46.7394 4.20998 51.2496C4.61802 54.6378 5.31021 58.7546 6.52703 63.0972C7.43782 66.3469 8.64008 69.7205 10.2576 72.9994C11.4672 75.4549 12.9172 77.8594 14.6513 80.0963C17.2598 83.448 20.546 86.4427 24.6336 88.5776C28.7139 90.7125 33.5594 91.9512 39.0533 91.9439C43.7602 91.9439 48.2268 91.0112 52.3581 89.4155C59.6008 86.6176 65.8379 81.8523 71.1642 76.4094C79.15 68.2268 85.1612 58.4485 89.2489 50.6813C93.3365 42.9141 95.4714 37.1506 95.5151 37.0267C96.3385 34.8117 95.2091 32.3562 92.994 31.5328C90.779 30.7094 88.3235 31.8388 87.5001 34.0539C87.4637 34.1632 86.2469 37.4056 83.9517 42.1781C80.5198 49.3406 74.6325 59.9422 66.8506 68.511C62.967 72.7954 58.6171 76.5624 53.9611 79.2001C49.2906 81.845 44.365 83.3824 39.046 83.3824C35.6942 83.3824 32.8817 82.8068 30.4481 81.845C28.3205 80.9998 26.4625 79.8485 24.8012 78.435C21.9012 75.9722 19.5842 72.6715 17.799 68.9919C15.1176 63.4761 13.6604 57.1589 12.939 52.1167C12.2104 47.0746 12.1812 43.3221 12.1812 42.8922V42.8485C12.1958 40.4877 10.3014 38.5641 7.94058 38.5423C5.57981 38.5204 3.65621 40.4221 3.63435 42.7829L3.64165 42.7902Z" fill="#FFA000"/>
</svg>
