<svg width="818" height="818" viewBox="0 0 818 818" fill="none" xmlns="http://www.w3.org/2000/svg">
<path d="M22.2369 245.153C21.985 248.888 21.4394 257.577 20.9357 269.833C20.432 282.089 20.0123 298.039 20.0123 316.592C20.0123 348.827 21.3134 388.954 25.9725 431.557C29.4563 463.541 34.8289 496.909 43.0557 529.481C49.2258 553.909 56.9489 577.918 66.8127 600.584C81.5873 634.54 101.063 665.601 127.506 689.861C140.686 701.95 155.628 712.275 172.334 720.082C189.039 727.931 207.424 733.22 227.319 735.528L228.746 735.654C235.63 736.032 242.472 736.2 249.271 736.2C299.639 736.2 346.65 726.042 389.756 708.33C427.49 692.883 462.328 671.729 494.312 646.755C550.305 603.018 597.693 547.655 637.651 489.354C697.505 401.882 740.612 307.735 768.986 235.205C797.318 162.675 810.834 111.845 811.002 111.216C814.318 98.7495 806.888 85.9056 794.38 82.5897C781.914 79.2738 769.07 86.7031 765.754 99.2112C765.586 99.8408 755.429 137.743 734.568 194.029C703.298 278.438 647.641 404.274 566.464 507.361C525.918 558.904 479.076 604.697 426.315 637.269C399.914 653.554 372.085 666.608 342.62 675.548C313.197 684.531 282.136 689.442 249.229 689.442C243.311 689.442 237.309 689.274 231.223 688.938L229.963 712.275L232.65 689.064C214.769 686.965 199.323 681.886 185.472 674.373C173.341 667.783 162.428 659.263 152.438 648.979C134.978 630.973 120.497 607.384 108.912 580.311C91.4931 539.68 80.7478 491.453 74.5777 444.569C68.4076 397.684 66.6868 352.143 66.6868 316.592C66.6868 298.795 67.1065 283.475 67.5682 271.764C68.0299 260.011 68.5756 251.911 68.8274 248.217C69.6669 235.331 59.8871 224.208 47.0012 223.369C34.1154 222.529 22.9924 232.309 22.153 245.195L22.2369 245.153Z" fill="#E119A0"/>
<path d="M21.2289 243.224C21.103 244.021 16.36 277.936 16.36 325.576C16.36 353.152 17.955 385.346 23.1177 418.547C26.9793 443.437 32.8556 468.873 41.7539 493.385C48.4277 511.77 56.7804 529.608 67.3997 546.188C83.2657 571.036 104.378 593.156 131.703 608.812C158.986 624.51 192.187 633.367 230.634 633.325C269.166 633.325 305.641 625.35 339.429 611.667C398.696 587.616 449.862 546.44 493.682 499.01C559.37 427.781 608.941 341.945 642.52 273.696C676.056 205.448 693.475 154.786 693.727 154.114C698.134 141.27 691.293 127.251 678.449 122.844C665.605 118.437 651.586 125.278 647.179 138.122L650.956 139.423L647.179 138.122L650.956 139.423L647.179 138.122C647.053 138.5 637.147 167.21 618.091 209.897C589.591 273.906 540.272 369.396 473.744 447.341C440.543 486.334 403.061 520.836 362.389 545.223C342.032 557.437 320.919 567.133 298.967 573.806C277.057 580.48 254.349 584.09 230.634 584.09C212.25 584.09 196.3 581.656 182.365 577.374C170.151 573.639 159.447 568.518 149.836 562.18C133.046 551.141 119.405 536.366 108.198 518.569C91.4085 491.958 80.4534 458.547 74.0735 424.255C67.6095 390.005 65.6368 355.041 65.6368 325.576C65.6368 303.414 66.7701 284.316 67.8614 270.884C68.4071 264.168 68.9527 258.88 69.3725 255.312C69.5823 253.507 69.7502 252.164 69.8761 251.283C69.9181 250.821 69.9601 250.527 70.002 250.317V250.107L61.7333 248.974L70.002 250.149L61.7333 248.974L70.002 250.149C71.8908 236.676 62.5307 224.252 49.0573 222.321C35.5838 220.39 23.1597 229.792 21.2289 243.266V243.224Z" fill="#00AEFF"/>
<path d="M20.9779 246.496V247.084C20.9779 250.735 21.1458 269.246 24.2519 295.227C26.6024 314.745 30.5898 338.46 37.5994 363.476C42.846 382.196 49.7717 401.63 59.0898 420.518C66.0574 434.663 74.4101 448.514 84.3998 461.4C99.4263 480.708 118.356 497.959 141.903 510.257C165.408 522.555 193.321 529.691 224.969 529.649C252.084 529.649 277.813 524.276 301.612 515.084C343.334 498.966 379.263 471.516 409.946 440.161C455.949 393.025 490.577 336.697 514.124 291.953C537.671 247.21 549.969 214.009 550.221 213.295C554.964 200.535 548.458 186.39 535.698 181.647C522.938 176.904 508.793 183.41 504.05 196.17C503.84 196.799 496.831 215.478 483.609 242.97C463.84 284.23 429.925 345.301 385.097 394.662C362.726 419.343 337.667 441.043 310.846 456.237C283.941 471.474 255.567 480.33 224.927 480.33C205.619 480.33 189.417 477.014 175.398 471.474C163.142 466.605 152.439 459.973 142.869 451.83C126.163 437.643 112.816 418.629 102.532 397.432C87.0861 365.659 78.6914 329.268 74.536 300.222C70.3387 271.176 70.1708 249.56 70.1708 247.084V246.832C70.2547 233.232 59.3416 222.151 45.7422 222.025C32.1428 221.9 21.0618 232.855 20.9359 246.454L20.9779 246.496Z" fill="#FFA000"/>
</svg>
