<svg width="27" height="27" viewBox="0 0 27 27" fill="none" xmlns="http://www.w3.org/2000/svg">
<path d="M8 4H12V2H8V4ZM2 19C1.45 19 0.979167 18.8042 0.5875 18.4125C0.195833 18.0208 0 17.55 0 17V6C0 5.45 0.195833 4.97917 0.5875 4.5875C0.979167 4.19583 1.45 4 2 4H6V2C6 1.45 6.19583 0.979167 6.5875 0.5875C6.97917 0.195833 7.45 0 8 0H12C12.55 0 13.0208 0.195833 13.4125 0.5875C13.8042 0.979167 14 1.45 14 2V4H18C18.55 4 19.0208 4.19583 19.4125 4.5875C19.8042 4.97917 20 5.45 20 6V10.275C19.7 10.0583 19.3833 9.87083 19.05 9.7125C18.7167 9.55417 18.3667 9.41667 18 9.3V6H2V17H9.075C9.125 17.35 9.2 17.6917 9.3 18.025C9.4 18.3583 9.525 18.6833 9.675 19H2Z" fill="#6E00BE"/>
<mask id="mask0_98_6221" style="mask-type:alpha" maskUnits="userSpaceOnUse" x="9" y="9" width="18" height="18">
<rect x="9.3186" y="9.11518" width="17" height="17" fill="#D9D9D9"/>
</mask>
<g mask="url(#mask0_98_6221)">
<path d="M22.4334 23L18.913 19.7477C18.5117 20.0786 18.0501 20.3376 17.5283 20.5247C17.0065 20.7118 16.4668 20.8053 15.909 20.8053C14.537 20.8053 13.3758 20.3309 12.4255 19.382C11.4752 18.4331 11 17.2738 11 15.9039C11 14.534 11.475 13.3742 12.4251 12.4245C13.3752 11.4748 14.5361 11 15.9077 11C17.2794 11 18.4407 11.4746 19.3916 12.4237C20.3425 13.3728 20.818 14.5324 20.818 15.9026C20.818 16.4751 20.7217 17.0219 20.5293 17.543C20.3368 18.0641 20.0801 18.5174 19.759 18.9028L23 22.4341L22.4334 23ZM15.909 19.6028C16.9433 19.6028 17.8193 19.2443 18.5372 18.5274C19.255 17.8105 19.6139 16.9356 19.6139 15.9026C19.6139 14.8697 19.255 13.9948 18.5372 13.2779C17.8193 12.561 16.9433 12.2025 15.909 12.2025C14.8747 12.2025 13.9986 12.561 13.2808 13.2779C12.563 13.9948 12.2041 14.8697 12.2041 15.9026C12.2041 16.9356 12.563 17.8105 13.2808 18.5274C13.9986 19.2443 14.8747 19.6028 15.909 19.6028Z" fill="#6E00BE"/>
</g>
</svg>
