<svg width="310" height="349" viewBox="0 0 310 349" fill="none" xmlns="http://www.w3.org/2000/svg">
<path d="M59.2481 275.09C59.2481 275.09 57.6961 260.827 50.5259 249.746C43.3556 238.665 33.6712 231.774 24.5764 231.045C15.4817 230.315 8.14076 238.696 17.8718 244.454C27.6028 250.212 44.8921 256.063 52.8539 277.558L59.2481 275.09Z" fill="#73D7C3"/>
<path opacity="0.1" d="M59.2481 275.09C59.2481 275.09 57.6961 260.827 50.5259 249.746C43.3556 238.665 33.6712 231.774 24.5764 231.045C15.4817 230.315 8.14076 238.696 17.8718 244.454C27.6028 250.212 44.8921 256.063 52.8539 277.558L59.2481 275.09Z" fill="black"/>
<path d="M56.5788 271.381H56.6719C56.7315 271.357 56.7858 271.322 56.8315 271.277C56.8771 271.232 56.9133 271.178 56.9379 271.119C56.9625 271.059 56.975 270.996 56.9746 270.931C56.9742 270.867 56.961 270.804 56.9357 270.745C47.3444 247.092 28.9997 237.222 20.7431 235.297C20.6221 235.284 20.5006 235.316 20.4018 235.387C20.3029 235.458 20.2335 235.563 20.2067 235.682C20.1799 235.8 20.1976 235.925 20.2564 236.031C20.3152 236.138 20.4111 236.219 20.5258 236.259C28.6738 238.122 46.5839 247.837 56.0356 271.102C56.0821 271.202 56.1607 271.284 56.2591 271.335C56.3576 271.385 56.4701 271.402 56.5788 271.381Z" fill="white"/>
<path d="M12.9365 271.257C13.8211 273.244 16.0405 274.268 17.9805 275.075C20.0766 275.642 21.9265 276.886 23.2418 278.613C25.4301 282.385 21.845 287.693 24.1885 291.355C24.7382 292.098 25.4357 292.718 26.237 293.177C27.0384 293.637 27.9262 293.925 28.8445 294.025C30.3468 294.243 31.8595 294.383 33.3763 294.444C34.098 294.426 34.8181 294.369 35.5336 294.273C37.6199 293.804 39.8027 294.039 41.7416 294.94C44.737 296.617 45.6526 300.404 47.4685 303.321C48.5975 305.042 50.0847 306.498 51.8284 307.591C53.5722 308.684 55.5314 309.387 57.572 309.653C59.3097 310.005 61.1097 309.887 62.7867 309.312L63.0816 309.126C63.2706 308.925 63.4469 308.712 63.6093 308.489V308.396C64.137 306.441 63.2678 304.408 63.2368 302.39V302.018C63.2368 299.674 63.392 297.362 63.4386 295.003C63.542 290.688 63.5834 286.373 63.5627 282.059C63.5627 279.265 63.8731 276.192 62.6936 273.554C61.3744 270.652 58.1152 270.59 56.8891 267.734C56.3925 266.601 56.1286 265.39 55.6475 264.242C54.9081 262.561 53.7207 261.116 52.2152 260.065C50.7097 259.014 48.9441 258.397 47.1115 258.282C41.4002 257.987 36.2475 262.597 30.5982 262.178C29.1311 261.98 27.6754 261.706 26.2371 261.355C21.5811 260.486 16.2888 261.805 13.697 265.701C13.1253 266.494 12.757 267.415 12.6244 268.384C12.4918 269.353 12.599 270.339 12.9365 271.257Z" fill="#73D7C3"/>
<path d="M64.137 299.441C64.1993 299.427 64.258 299.4 64.3095 299.362C64.3609 299.324 64.404 299.276 64.4361 299.221C64.4681 299.165 64.4884 299.104 64.4957 299.04C64.503 298.977 64.4971 298.913 64.4784 298.851C56.6408 269.301 25.5232 265.049 18.2909 265.561C18.2277 265.565 18.1659 265.581 18.109 265.609C18.0521 265.637 18.0013 265.676 17.9595 265.724C17.9177 265.771 17.8857 265.827 17.8653 265.887C17.845 265.947 17.8366 266.01 17.8408 266.073C17.8321 266.138 17.8371 266.204 17.8556 266.267C17.8741 266.33 17.9056 266.388 17.948 266.438C17.9905 266.487 18.043 266.528 18.1021 266.556C18.1612 266.584 18.2255 266.599 18.2909 266.601C25.4146 266.089 55.8648 270.264 63.5628 299.193C63.6132 299.296 63.6987 299.378 63.804 299.423C63.9093 299.469 64.0274 299.475 64.137 299.441Z" fill="white"/>
<path d="M29.5584 284.48C29.6586 284.462 29.7507 284.413 29.8222 284.34C32.6952 281.851 36.082 280.026 39.7412 278.996C43.4004 277.966 47.2418 277.756 50.9915 278.381C51.1204 278.394 51.2497 278.359 51.3534 278.281C51.457 278.203 51.5274 278.089 51.5502 277.962C51.5589 277.898 51.5549 277.834 51.5385 277.772C51.5221 277.711 51.4935 277.653 51.4545 277.602C51.4155 277.552 51.3668 277.509 51.3113 277.478C51.2558 277.446 51.1946 277.426 51.1312 277.418C47.2335 276.779 43.2429 277.009 39.444 278.09C35.6452 279.171 32.1319 281.077 29.1549 283.673C29.1098 283.718 29.0741 283.771 29.0497 283.829C29.0253 283.888 29.0127 283.951 29.0127 284.014C29.0127 284.078 29.0253 284.141 29.0497 284.199C29.0741 284.258 29.1098 284.311 29.1549 284.356C29.2094 284.404 29.2736 284.44 29.3432 284.461C29.4128 284.483 29.4862 284.489 29.5584 284.48Z" fill="white"/>
<path d="M80.0342 347.366L49.3512 329.643C45.6419 327.501 45.6419 324.024 49.3512 321.883L262.86 198.607C264.942 197.551 267.245 197 269.58 197C271.915 197 274.218 197.551 276.3 198.607L306.999 216.331C310.708 218.473 310.708 221.949 306.999 224.091L93.4745 347.366C91.392 348.423 89.0896 348.974 86.7544 348.974C84.4191 348.974 82.1168 348.423 80.0342 347.366Z" fill="url(#paint0_radial_338_435)"/>
<path d="M258.061 19.279V22.1641L248.092 27.9219L233.139 36.5158L101.137 112.817C100.355 113.308 99.7087 113.988 99.2584 114.794C98.7733 115.587 98.5025 116.492 98.4726 117.421V292.859C98.4726 302.398 91.7694 306.265 83.5193 301.452C75.2692 296.64 68.5537 285.087 68.5537 275.548V100.098C68.6048 99.1754 68.8726 98.2777 69.3355 97.4778C69.7984 96.6779 70.4432 95.9984 71.2178 95.4943L218.161 10.6483L232.39 2.44727C232.865 3.24748 233.127 4.15633 233.151 5.08681V7.76319L76.2023 98.6126C75.4657 99.0698 74.8541 99.7026 74.4221 100.454C73.8855 101.278 73.5841 102.234 73.5504 103.216V278.421C73.5504 284.78 78.0192 292.503 83.5316 295.682C89.0439 298.862 93.5005 296.284 93.5005 289.924V114.487C93.5432 113.568 93.8023 112.672 94.2567 111.872C94.7111 111.072 95.3479 110.39 96.1155 109.883L257.287 16.8236C257.751 17.5626 258.017 18.4079 258.061 19.279Z" fill="#D2D1D6"/>
<path d="M243.095 10.8323V19.2789L91.2046 107.01C90.4241 107.506 89.7717 108.179 89.3002 108.975C88.8288 109.771 88.5517 110.666 88.4914 111.589V287.027C88.4914 290.207 86.2693 291.496 83.5192 289.9C82.0711 288.96 80.8651 287.692 79.999 286.199C79.1329 284.706 78.6313 283.029 78.5348 281.306V105.856C78.5664 104.929 78.8325 104.025 79.3082 103.229C79.7659 102.428 80.4103 101.75 81.1866 101.252L242.346 8.20508C242.813 9.00391 243.07 9.90754 243.095 10.8323Z" fill="#D2D1D6"/>
<path d="M104.23 117.63C103.753 118.421 103.487 119.321 103.457 120.245V294.172C103.46 295.437 103.378 296.7 103.211 297.953C103.162 298.281 103.113 298.6 103.064 298.911C103.064 299.206 102.954 299.488 102.892 299.783C102.831 300.077 102.77 300.298 102.696 300.544C102.622 300.789 102.573 301.023 102.499 301.256C101.686 304.243 99.7742 306.813 97.1467 308.45C93.5741 310.501 88.7861 310.255 83.5193 307.223C72.47 300.863 63.5692 284.707 63.5692 271.153V97.213C63.5991 96.2895 63.8654 95.3892 64.3427 94.598L69.3394 97.4708C68.8543 98.2637 68.5835 99.1691 68.5537 100.098V275.536C68.5537 285.075 75.2569 296.677 83.5193 301.44C91.7816 306.204 98.4726 302.349 98.4726 292.846V117.372C98.5025 116.443 98.7732 115.537 99.2583 114.745L104.23 117.63Z" fill="#EBEBEB"/>
<path d="M94.2616 111.872C93.7859 112.664 93.5197 113.563 93.4881 114.487V289.924C93.4881 296.284 89.0193 298.862 83.5192 295.682C78.0192 292.502 73.5381 284.78 73.5381 278.421V103.167C73.5718 102.184 73.8731 101.229 74.4097 100.405L79.3205 103.229C78.8448 104.025 78.5787 104.929 78.5471 105.856V281.294C78.6436 283.017 79.1452 284.694 80.0113 286.187C80.8774 287.68 82.0834 288.948 83.5315 289.888C86.2816 291.484 88.5037 290.194 88.5037 287.015V111.589C88.5336 110.66 88.8043 109.755 89.2894 108.962L94.2616 111.872Z" fill="#EBEBEB"/>
<path d="M232.39 2.44724L218.185 10.6482L71.2177 95.4943C70.4329 95.9816 69.7862 96.6622 69.3394 97.4708L64.3427 94.598C64.7891 93.7859 65.4357 93.1012 66.221 92.6092L213.176 7.76316L216.012 6.11804L218.885 4.49748L221.34 3.07336L222.801 2.22625L225.514 0.667081C226.306 0.246296 227.185 0.018099 228.081 0.00103326C228.977 -0.0160324 229.864 0.178512 230.671 0.568863C231.397 1.0352 231.989 1.68255 232.39 2.44724Z" fill="#FAFAFA"/>
<path d="M267.268 22.5937L253.064 30.7948L228.129 45.1833L106.121 115.641C105.335 116.136 104.685 116.819 104.23 117.63L99.3197 114.745C99.7593 113.964 100.383 113.302 101.137 112.817L233.126 36.5649L248.08 27.9711L258.048 22.2132L260.369 20.875L260.627 20.7399C261.393 20.3728 262.232 20.1823 263.082 20.1823C263.932 20.1823 264.771 20.3728 265.537 20.7399L265.795 20.8995C266.403 21.3512 266.905 21.9292 267.268 22.5937Z" fill="#FAFAFA"/>
<path d="M242.346 8.20508L81.1866 101.252C80.4103 101.75 79.7659 102.428 79.3082 103.229L74.3975 100.405C74.8295 99.6534 75.4411 99.0207 76.1776 98.5634L233.126 7.714L235.434 6.37582C236.225 5.95504 237.105 5.72684 238.001 5.70977C238.897 5.69271 239.784 5.88725 240.591 6.2776C241.334 6.75609 241.939 7.42055 242.346 8.20508Z" fill="#FAFAFA"/>
<path d="M257.324 16.8236L96.1154 109.883C95.3266 110.375 94.676 111.059 94.2248 111.872L89.2404 108.987C89.711 108.167 90.3883 107.486 91.2047 107.01L243.144 19.279L250.51 15.0557C251.303 14.6368 252.182 14.4107 253.078 14.3958C253.974 14.3809 254.861 14.5775 255.667 14.9698C256.369 15.4353 256.94 16.0737 257.324 16.8236Z" fill="#FAFAFA"/>
<path d="M267.993 25.2332V199.161C267.993 206.294 265.537 211.29 261.572 213.5L96.9135 308.573C98.3712 307.697 99.6355 306.533 100.63 305.152C101.624 303.772 102.327 302.204 102.696 300.544C102.77 300.298 102.831 300.041 102.892 299.783C102.954 299.525 103.003 299.206 103.064 298.911C103.126 298.616 103.162 298.285 103.212 297.953C103.378 296.7 103.46 295.437 103.457 294.172V120.245C103.487 119.321 103.753 118.421 104.231 117.63C104.685 116.819 105.335 116.136 106.121 115.641L228.13 45.1955L253.064 30.807L267.268 22.606C267.731 23.4052 267.98 24.3099 267.993 25.2332Z" fill="#F5F5F5"/>
<path d="M121.087 118.526L145.641 104.321C147.114 103.474 148.292 104.15 148.292 105.856V140.023C148.245 140.945 147.98 141.843 147.519 142.643C147.058 143.443 146.414 144.123 145.641 144.627L121.087 158.831C119.613 159.678 118.423 158.991 118.423 157.296V123.13C118.473 122.207 118.74 121.309 119.203 120.509C119.666 119.709 120.311 119.029 121.087 118.526Z" fill="#A8A8A8"/>
<path d="M118.423 171.881L253.076 94.1438V99.9017L118.423 177.639V171.881Z" fill="#C599E5"/>
<path opacity="0.4" d="M118.423 171.881L253.076 94.1438V99.9017L118.423 177.639V171.881Z" fill="white"/>
<path d="M120.019 188.234L146.758 172.802C147.629 172.287 148.342 172.704 148.342 173.723V227.619C148.313 228.171 148.155 228.709 147.88 229.189C147.604 229.669 147.22 230.077 146.758 230.381L120.019 245.813C119.135 246.329 118.423 245.911 118.423 244.892V190.997C118.452 190.443 118.611 189.904 118.889 189.424C119.166 188.944 119.553 188.536 120.019 188.234Z" fill="#F0F0F0"/>
<path d="M120.019 251.547L146.758 236.102C147.629 235.599 148.342 236.016 148.342 237.023V279.206L118.423 296.517V254.346C118.446 253.786 118.603 253.239 118.881 252.752C119.158 252.265 119.548 251.852 120.019 251.547Z" fill="#F0F0F0"/>
<path d="M154.934 168.063L181.661 152.631C182.545 152.128 183.257 152.533 183.257 153.552V224.758C183.227 225.312 183.067 225.85 182.79 226.33C182.512 226.81 182.126 227.218 181.661 227.521L154.934 242.953C154.05 243.456 153.338 243.051 153.338 242.032V170.826C153.37 170.273 153.531 169.735 153.808 169.255C154.085 168.775 154.471 168.367 154.934 168.063Z" fill="#F0F0F0"/>
<path d="M189.838 147.929L216.565 132.46C217.449 131.945 218.161 132.362 218.161 133.381V187.277C218.132 187.831 217.972 188.37 217.694 188.85C217.417 189.33 217.03 189.737 216.565 190.039L189.838 205.508C188.954 206.024 188.242 205.606 188.242 204.587V150.691C188.271 150.138 188.43 149.599 188.708 149.119C188.985 148.638 189.372 148.231 189.838 147.929Z" fill="#F0F0F0"/>
<path d="M224.753 127.77L251.48 112.338C252.364 111.823 253.076 112.24 253.076 113.259V184.465C253.044 185.018 252.883 185.556 252.606 186.036C252.329 186.516 251.943 186.924 251.48 187.228L224.753 202.66C223.869 203.163 223.157 202.758 223.157 201.739V130.533C223.186 129.979 223.346 129.44 223.623 128.96C223.901 128.48 224.288 128.072 224.753 127.77Z" fill="#F0F0F0"/>
<path d="M154.934 248.698L181.661 233.266C182.545 232.751 183.257 233.168 183.257 234.187V259.085L153.338 276.371V251.461C153.367 250.907 153.527 250.368 153.804 249.888C154.082 249.408 154.469 249 154.934 248.698Z" fill="#F0F0F0"/>
<path d="M188.193 214.028V256.212L218.111 238.938V196.755C218.111 195.736 217.399 195.33 216.515 195.834L189.789 211.266C189.324 211.568 188.937 211.976 188.66 212.456C188.383 212.936 188.222 213.475 188.193 214.028Z" fill="#F0F0F0"/>
<path d="M224.741 208.393L251.48 192.961C252.364 192.445 253.076 192.863 253.076 193.882V218.779L223.157 236.053V211.155C223.186 210.603 223.344 210.065 223.619 209.585C223.894 209.105 224.279 208.697 224.741 208.393Z" fill="#F0F0F0"/>
<path d="M159.956 251.547L176.714 241.872C177.597 241.357 178.31 241.774 178.31 242.793V256.457C178.281 257.011 178.121 257.55 177.843 258.03C177.566 258.51 177.179 258.918 176.714 259.22L159.956 268.869C159.072 269.373 158.359 268.968 158.359 267.949V254.358C158.381 253.796 158.537 253.247 158.815 252.758C159.092 252.268 159.484 251.853 159.956 251.547Z" fill="#D2D1D6"/>
<path d="M229.738 211.29L246.496 201.616C247.368 201.101 248.092 201.518 248.092 202.537V216.128C248.059 216.68 247.898 217.218 247.621 217.697C247.344 218.177 246.958 218.585 246.496 218.89L229.738 228.564C228.854 229.067 228.142 228.662 228.142 227.643V214.053C228.171 213.499 228.331 212.96 228.608 212.48C228.885 212 229.273 211.592 229.738 211.29Z" fill="#D2D1D6"/>
<path d="M125.003 191.119L141.761 181.433C142.645 180.93 143.357 181.347 143.357 182.354V195.957C143.325 196.51 143.164 197.048 142.887 197.527C142.61 198.007 142.224 198.415 141.761 198.719L125.003 208.393C124.131 208.896 123.407 208.491 123.407 207.472V193.845C123.443 193.298 123.606 192.766 123.883 192.293C124.16 191.82 124.543 191.418 125.003 191.119Z" fill="#D2D1D6"/>
<path d="M124.475 211.573L142.301 201.285C142.891 200.953 143.357 201.223 143.357 201.899V202.328C143.338 202.697 143.233 203.055 143.05 203.375C142.866 203.695 142.61 203.968 142.301 204.17L124.475 214.458C123.886 214.802 123.407 214.458 123.407 213.844V213.414C123.428 213.045 123.536 212.686 123.721 212.366C123.907 212.046 124.165 211.774 124.475 211.573Z" fill="#D2D1D6"/>
<path d="M124.475 217.331L142.301 207.043C142.891 206.711 143.357 206.981 143.357 207.656V208.086C143.338 208.455 143.233 208.813 143.05 209.133C142.866 209.453 142.61 209.725 142.301 209.928L124.475 220.216C123.886 220.56 123.407 220.216 123.407 219.602V219.172C123.428 218.803 123.536 218.444 123.721 218.124C123.907 217.804 124.165 217.532 124.475 217.331Z" fill="#D2D1D6"/>
<path d="M124.475 223.089L142.301 212.801C142.891 212.469 143.357 212.739 143.357 213.414V213.844C143.338 214.212 143.233 214.571 143.05 214.891C142.866 215.211 142.61 215.483 142.301 215.686L124.475 225.974C123.886 226.318 123.407 226.035 123.407 225.36V224.93C123.428 224.561 123.536 224.202 123.721 223.882C123.907 223.562 124.165 223.29 124.475 223.089Z" fill="#D2D1D6"/>
<path d="M124.475 228.846L142.301 218.558C142.891 218.227 143.357 218.497 143.357 219.172V219.626C143.338 219.995 143.233 220.354 143.05 220.674C142.866 220.994 142.61 221.266 142.301 221.468L124.475 231.756C123.886 232.1 123.407 231.818 123.407 231.142V230.676C123.43 230.309 123.539 229.952 123.724 229.634C123.91 229.317 124.167 229.047 124.475 228.846Z" fill="#D2D1D6"/>
<path d="M124.475 234.604L142.301 224.316C142.891 223.985 143.357 224.255 143.357 224.93V225.36C143.338 225.728 143.233 226.087 143.05 226.407C142.866 226.727 142.61 226.999 142.301 227.201L124.475 237.489C123.886 237.833 123.407 237.551 123.407 236.876V236.446C123.428 236.077 123.536 235.718 123.721 235.398C123.907 235.078 124.165 234.806 124.475 234.604Z" fill="#D2D1D6"/>
<path d="M159.956 170.961L176.714 161.286C177.597 160.771 178.31 161.188 178.31 162.207V175.798C178.28 176.351 178.119 176.89 177.842 177.37C177.565 177.85 177.178 178.258 176.714 178.56L159.956 188.234C159.072 188.738 158.359 188.333 158.359 187.314V173.723C158.389 173.169 158.548 172.63 158.826 172.15C159.103 171.67 159.49 171.262 159.956 170.961Z" fill="#D2D1D6"/>
<path d="M159.379 191.389L177.205 181.101C177.794 180.758 178.273 181.028 178.273 181.715V182.133C178.253 182.502 178.145 182.862 177.96 183.182C177.774 183.502 177.515 183.773 177.205 183.974L159.379 194.262C158.802 194.606 158.323 194.262 158.323 193.648V193.231C158.342 192.863 158.447 192.504 158.63 192.184C158.814 191.864 159.07 191.592 159.379 191.389Z" fill="#D2D1D6"/>
<path d="M159.379 197.184L177.205 186.896C177.794 186.552 178.273 186.823 178.273 187.51V187.927C178.253 188.297 178.145 188.656 177.96 188.976C177.774 189.297 177.515 189.568 177.205 189.769L159.379 200.057C158.802 200.401 158.323 200.118 158.323 199.443V199.026C158.342 198.657 158.447 198.299 158.63 197.979C158.814 197.659 159.07 197.387 159.379 197.184Z" fill="#D2D1D6"/>
<path d="M159.379 202.942L177.205 192.617C177.794 192.274 178.273 192.544 178.273 193.231V193.649C178.253 194.018 178.145 194.377 177.96 194.698C177.774 195.018 177.515 195.289 177.205 195.49L159.379 205.778C158.802 206.122 158.323 205.84 158.323 205.164V204.747C158.347 204.385 158.455 204.034 158.638 203.72C158.822 203.407 159.075 203.141 159.379 202.942Z" fill="#D2D1D6"/>
<path d="M159.379 208.7L177.205 198.412C177.794 198.068 178.273 198.338 178.273 199.026V199.443C178.253 199.813 178.145 200.172 177.96 200.492C177.774 200.812 177.515 201.084 177.205 201.285L159.379 211.573C158.802 211.917 158.323 211.634 158.323 210.959V210.542C158.342 210.173 158.447 209.814 158.63 209.494C158.814 209.174 159.07 208.902 159.379 208.7Z" fill="#D2D1D6"/>
<path d="M159.379 214.458L177.205 204.17C177.794 203.826 178.273 204.096 178.273 204.784V205.201C178.253 205.571 178.145 205.93 177.96 206.25C177.774 206.57 177.515 206.842 177.205 207.043L159.379 217.331C158.802 217.675 158.323 217.392 158.323 216.717V216.3C158.342 215.931 158.447 215.572 158.63 215.252C158.814 214.932 159.07 214.66 159.379 214.458Z" fill="#D2D1D6"/>
<path d="M159.379 220.216L177.205 209.928C177.794 209.584 178.273 209.866 178.273 210.542V210.959C178.255 211.329 178.148 211.689 177.962 212.009C177.777 212.33 177.517 212.601 177.205 212.8L159.379 223.089C158.802 223.432 158.323 223.162 158.323 222.475V222.082C158.341 221.71 158.445 221.347 158.629 221.023C158.812 220.699 159.069 220.423 159.379 220.216Z" fill="#D2D1D6"/>
<path d="M159.379 225.974L177.205 215.686C177.794 215.342 178.273 215.624 178.273 216.299V216.717C178.255 217.087 178.148 217.447 177.962 217.767C177.777 218.088 177.517 218.359 177.205 218.558L159.379 228.846C158.802 229.19 158.323 228.92 158.323 228.233V227.815C158.344 227.448 158.451 227.09 158.634 226.77C158.817 226.451 159.072 226.178 159.379 225.974Z" fill="#D2D1D6"/>
<path d="M159.379 231.732L177.205 221.444C177.794 221.1 178.273 221.382 178.273 222.057V222.475C178.255 222.845 178.148 223.205 177.962 223.525C177.777 223.846 177.517 224.117 177.205 224.316L159.379 234.604C158.802 234.948 158.323 234.678 158.323 233.991V233.573C158.344 233.205 158.451 232.848 158.634 232.528C158.817 232.209 159.072 231.936 159.379 231.732Z" fill="#D2D1D6"/>
<path d="M125.003 254.468L141.761 244.782C142.645 244.279 143.357 244.696 143.357 245.703V259.306C143.327 259.859 143.167 260.398 142.89 260.878C142.612 261.358 142.226 261.765 141.761 262.068L125.003 271.742C124.131 272.246 123.407 271.84 123.407 270.821V257.231C123.437 256.677 123.597 256.139 123.875 255.659C124.152 255.179 124.539 254.771 125.003 254.468Z" fill="#D2D1D6"/>
<path d="M124.475 274.873L142.301 264.585C142.891 264.253 143.357 264.523 143.357 265.199V265.628C143.338 265.997 143.233 266.355 143.05 266.675C142.866 266.995 142.61 267.268 142.301 267.47L124.475 277.758C123.886 278.102 123.407 277.819 123.407 277.144V276.714C123.428 276.345 123.536 275.986 123.721 275.666C123.907 275.346 124.165 275.074 124.475 274.873Z" fill="#D2D1D6"/>
<path d="M124.475 280.68L142.301 270.392C142.891 270.06 143.357 270.33 143.357 271.005V271.435C143.338 271.804 143.233 272.162 143.05 272.482C142.866 272.802 142.61 273.074 142.301 273.277L124.475 283.565C123.886 283.909 123.407 283.626 123.407 282.951V282.521C123.428 282.152 123.536 281.793 123.721 281.473C123.907 281.153 124.165 280.881 124.475 280.68Z" fill="#D2D1D6"/>
<path d="M124.475 286.45L142.301 276.101C142.891 275.769 143.357 276.039 143.357 276.714V277.144C143.338 277.512 143.233 277.871 143.05 278.191C142.866 278.511 142.61 278.783 142.301 278.986L124.475 289.274C123.886 289.617 123.407 289.335 123.407 288.66V288.242C123.433 287.881 123.543 287.531 123.728 287.219C123.914 286.908 124.17 286.645 124.475 286.45Z" fill="#D2D1D6"/>
<path d="M194.822 150.802L211.58 141.128C212.464 140.624 213.176 141.029 213.176 142.048V155.639C213.147 156.193 212.987 156.732 212.71 157.212C212.433 157.692 212.045 158.1 211.58 158.401L194.822 168.063C193.95 168.567 193.226 168.149 193.226 167.142V153.564C193.26 153.012 193.422 152.474 193.699 151.995C193.976 151.516 194.36 151.107 194.822 150.802Z" fill="#D2D1D6"/>
<path d="M194.331 171.268L212.157 160.98C212.734 160.648 213.213 160.98 213.213 161.593V162.023C213.191 162.391 213.085 162.748 212.902 163.068C212.718 163.387 212.464 163.66 212.157 163.865L194.331 174.202C193.742 174.533 193.263 174.202 193.263 173.588V173.158C193.276 172.781 193.38 172.412 193.566 172.083C193.752 171.754 194.014 171.474 194.331 171.268Z" fill="#D2D1D6"/>
<path d="M194.331 177.026L212.157 166.737C212.734 166.406 213.213 166.737 213.213 167.351V167.781C213.191 168.149 213.085 168.506 212.902 168.826C212.718 169.145 212.464 169.418 212.157 169.623L194.331 179.911C193.742 180.242 193.263 179.911 193.263 179.297V178.867C193.284 178.498 193.392 178.139 193.577 177.819C193.763 177.499 194.021 177.227 194.331 177.026Z" fill="#D2D1D6"/>
<path d="M194.331 182.796L212.157 172.508C212.734 172.176 213.213 172.446 213.213 173.121V173.551C213.191 173.919 213.085 174.277 212.902 174.596C212.718 174.916 212.464 175.188 212.157 175.393L194.331 185.669C193.742 186 193.263 185.669 193.263 185.055V184.625C193.286 184.258 193.394 183.901 193.58 183.584C193.765 183.266 194.023 182.996 194.331 182.796Z" fill="#D2D1D6"/>
<path d="M194.331 188.541L212.157 178.253C212.734 177.922 213.213 178.192 213.213 178.867V179.297C213.191 179.664 213.085 180.022 212.902 180.342C212.718 180.661 212.464 180.934 212.157 181.138L194.331 191.39C193.742 191.721 193.263 191.451 193.263 190.776V190.346C193.29 189.983 193.4 189.631 193.585 189.318C193.771 189.005 194.026 188.739 194.331 188.541Z" fill="#D2D1D6"/>
<path d="M194.331 194.299L212.12 184.023C212.697 183.692 213.176 183.962 213.176 184.637V185.067C213.155 185.435 213.048 185.792 212.865 186.112C212.682 186.431 212.427 186.704 212.12 186.908L194.331 197.184C193.742 197.516 193.263 197.246 193.263 196.57V196.141C193.284 195.771 193.392 195.412 193.577 195.092C193.763 194.773 194.021 194.501 194.331 194.299Z" fill="#D2D1D6"/>
<path d="M229.738 130.655L246.496 120.981C247.368 120.466 248.092 120.883 248.092 121.902V135.493C248.059 136.045 247.898 136.583 247.621 137.062C247.344 137.542 246.958 137.95 246.496 138.255L229.738 147.929C228.854 148.432 228.142 148.027 228.142 147.008V133.418C228.171 132.864 228.331 132.325 228.608 131.845C228.885 131.365 229.273 130.957 229.738 130.655Z" fill="#D2D1D6"/>
<path d="M229.198 151.109L247.024 140.821C247.613 140.489 248.092 140.759 248.092 141.435V141.864C248.071 142.233 247.963 142.593 247.778 142.912C247.592 143.232 247.334 143.504 247.024 143.706L229.198 153.994C228.621 154.338 228.142 154.055 228.142 153.38V152.95C228.163 152.583 228.27 152.225 228.453 151.905C228.636 151.586 228.891 151.313 229.198 151.109Z" fill="#D2D1D6"/>
<path d="M229.198 156.879L247.024 146.579C247.613 146.247 248.092 146.517 248.092 147.193V147.622C248.071 147.991 247.963 148.351 247.778 148.67C247.592 148.99 247.334 149.262 247.024 149.464L229.198 159.752C228.621 160.096 228.142 159.813 228.142 159.138V158.721C228.161 158.352 228.266 157.993 228.449 157.673C228.633 157.353 228.889 157.081 229.198 156.879Z" fill="#D2D1D6"/>
<path d="M229.198 162.637L247.024 152.337C247.613 152.005 248.092 152.275 248.092 152.95V153.331C248.071 153.7 247.963 154.059 247.778 154.379C247.592 154.699 247.334 154.971 247.024 155.173L229.198 165.461C228.621 165.804 228.142 165.522 228.142 164.847V164.429C228.168 164.07 228.277 163.721 228.46 163.41C228.643 163.099 228.896 162.834 229.198 162.637Z" fill="#D2D1D6"/>
<path d="M229.198 168.395L247.024 158.094C247.613 157.763 248.092 158.094 248.092 158.708V159.138C248.071 159.507 247.963 159.866 247.778 160.186C247.592 160.506 247.334 160.778 247.024 160.979L229.198 171.268C228.621 171.611 228.142 171.268 228.142 170.654V170.236C228.161 169.868 228.266 169.509 228.449 169.189C228.633 168.869 228.889 168.597 229.198 168.395Z" fill="#D2D1D6"/>
<path d="M229.198 174.202L247.024 163.901C247.613 163.57 248.092 163.901 248.092 164.515V164.945C248.071 165.314 247.963 165.673 247.778 165.993C247.592 166.313 247.334 166.585 247.024 166.786L229.198 177.025C228.621 177.369 228.142 177.025 228.142 176.412V175.994C228.168 175.634 228.277 175.285 228.46 174.974C228.643 174.664 228.896 174.399 229.198 174.202Z" fill="#D2D1D6"/>
<path d="M229.198 179.911L247.024 169.623C247.613 169.279 248.092 169.549 248.092 170.236V170.654C248.072 171.023 247.965 171.383 247.779 171.703C247.593 172.023 247.335 172.294 247.024 172.495L229.198 182.796C228.621 183.139 228.142 182.796 228.142 182.182V181.764C228.16 181.394 228.265 181.033 228.448 180.711C228.631 180.389 228.888 180.115 229.198 179.911Z" fill="#D2D1D6"/>
<path d="M229.198 185.668L247.024 175.43C247.613 175.086 248.092 175.356 248.092 176.043V176.461C248.072 176.83 247.965 177.19 247.779 177.51C247.593 177.83 247.335 178.101 247.024 178.302L229.198 188.59C228.621 188.934 228.142 188.59 228.142 187.977V187.559C228.154 187.183 228.256 186.814 228.44 186.485C228.624 186.156 228.883 185.876 229.198 185.668Z" fill="#D2D1D6"/>
<path d="M229.198 191.389L247.024 181.101C247.613 180.758 248.092 181.028 248.092 181.715V182.133C248.072 182.502 247.965 182.862 247.779 183.182C247.593 183.502 247.335 183.773 247.024 183.974L229.198 194.262C228.621 194.606 228.142 194.336 228.142 193.648V193.231C228.162 192.863 228.267 192.505 228.451 192.185C228.634 191.865 228.89 191.592 229.198 191.389Z" fill="#D2D1D6"/>
<path d="M194.822 214.151L211.58 204.477C212.464 203.973 213.176 204.379 213.176 205.398V218.988C213.147 219.542 212.987 220.081 212.71 220.561C212.433 221.041 212.045 221.449 211.58 221.75L194.822 231.437C193.95 231.94 193.226 231.523 193.226 230.516V216.913C193.26 216.361 193.422 215.824 193.699 215.344C193.976 214.865 194.36 214.456 194.822 214.151Z" fill="#D2D1D6"/>
<path d="M194.331 234.617L212.157 224.329C212.734 223.997 213.213 224.267 213.213 224.942V225.372C213.191 225.74 213.085 226.097 212.902 226.417C212.718 226.737 212.464 227.009 212.157 227.214L194.331 237.502C193.742 237.833 193.263 237.563 193.263 236.888V236.458C193.284 236.089 193.392 235.73 193.577 235.41C193.763 235.09 194.021 234.818 194.331 234.617Z" fill="#D2D1D6"/>
<path d="M194.331 240.375L212.157 230.086C212.734 229.755 213.213 230.086 213.213 230.7V231.13C213.191 231.498 213.085 231.855 212.902 232.175C212.718 232.494 212.464 232.767 212.157 232.972L194.331 243.26C193.742 243.591 193.263 243.321 193.263 242.646V242.216C193.284 241.847 193.392 241.488 193.577 241.168C193.763 240.848 194.021 240.576 194.331 240.375Z" fill="#D2D1D6"/>
<path d="M194.331 246.132L212.157 235.844C212.734 235.513 213.213 235.844 213.213 236.458V236.888C213.191 237.256 213.085 237.613 212.902 237.933C212.718 238.252 212.464 238.525 212.157 238.729L194.331 249.018C193.742 249.349 193.263 249.079 193.263 248.404V247.974C193.284 247.605 193.392 247.246 193.577 246.926C193.763 246.606 194.021 246.334 194.331 246.132Z" fill="#D2D1D6"/>
<path d="M159.096 133.762C158.851 133.68 158.728 133.446 158.728 133.062C158.743 132.688 158.817 132.319 158.949 131.969L160.275 127.746C160.359 127.365 160.551 127.015 160.827 126.739C160.918 126.69 161.019 126.664 161.122 126.664C161.225 126.664 161.326 126.69 161.417 126.739C162.099 127.025 162.843 127.134 163.579 127.057C164.315 126.98 165.019 126.718 165.628 126.297C166.725 125.657 167.586 124.68 168.083 123.51C168.657 122.075 168.929 120.537 168.881 118.992V94.2298C168.858 93.5149 168.988 92.8034 169.262 92.1427C169.556 91.5333 170.038 91.0342 170.637 90.7186L173.362 89.1471C173.976 88.7911 174.418 88.742 174.676 89.0121C175 89.5 175.14 90.0878 175.069 90.6695V115.518C175.113 119.005 174.374 122.458 172.908 125.622C171.572 128.534 169.362 130.959 166.585 132.558C163.63 134.269 161.134 134.67 159.096 133.762Z" fill="#DCC2EF"/>
<path d="M181.207 118.845C179.005 116.586 177.904 112.261 177.904 105.868C177.779 100.101 178.906 94.3754 181.207 89.0857C183.169 84.5615 186.518 80.778 190.771 78.282C194.933 75.8266 198.137 75.8266 200.31 78.061C202.483 80.2954 203.612 84.6292 203.612 91.0255C203.738 96.7926 202.611 102.518 200.31 107.808C198.353 112.325 195.013 116.103 190.771 118.6C186.597 121.006 183.409 121.088 181.207 118.845ZM195.841 105.537C197.09 101.991 197.673 98.2451 197.56 94.4876C197.56 90.0597 196.987 87.0478 195.841 85.4518C194.699 83.8558 193.017 83.7084 190.771 84.9975C188.389 86.4573 186.585 88.6952 185.663 91.3324C184.417 94.8784 183.838 98.6248 183.957 102.382C183.957 106.801 184.522 109.822 185.663 111.405C186.805 112.989 188.512 113.149 190.771 111.835C193.142 110.39 194.935 108.162 195.841 105.537Z" fill="#DCC2EF"/>
<path d="M207.025 107.771C206.701 107.297 206.562 106.721 206.633 106.151V72.4749C206.612 71.7551 206.746 71.0393 207.025 70.3756C207.28 69.8059 207.71 69.3326 208.253 69.0251L219.057 62.7761C221.774 61.2129 223.82 61.0001 225.195 62.1377C226.57 63.2754 227.246 65.5262 227.221 68.8901C227.222 70.6697 226.944 72.4385 226.398 74.1323C225.921 75.7034 225.151 77.1698 224.127 78.4538C226.656 78.2819 227.921 80.4099 227.921 84.8378C227.92 87.0105 227.593 89.1708 226.951 91.2464C226.305 93.3411 225.304 95.3094 223.992 97.0657C222.676 98.8339 221.003 100.306 219.081 101.387L208.278 107.636C207.701 107.968 207.283 108.017 207.025 107.771ZM218.075 78.994C219.06 78.4173 219.854 77.5634 220.358 76.5386C220.932 75.367 221.214 74.0739 221.181 72.7696C221.181 71.2227 220.923 70.3142 220.42 69.8845C219.916 69.4548 219.13 69.639 218.075 70.2405L212.746 73.3343V82.1246L218.075 78.994ZM218.664 94.7822C219.761 94.1639 220.624 93.2018 221.119 92.0444C221.661 90.7977 221.933 89.4505 221.917 88.0912C221.917 86.4707 221.61 85.4271 220.997 84.9729C220.383 84.5186 219.511 84.6046 218.406 85.243L212.746 88.4964V98.2074L218.664 94.7822Z" fill="#DCC2EF"/>
<path d="M233.384 93.0511C231.984 93.4617 230.487 93.4013 229.124 92.8792C228.963 92.809 228.826 92.6943 228.728 92.5486C228.63 92.4029 228.576 92.2322 228.572 92.0567C228.587 91.7503 228.649 91.4482 228.756 91.1605L230.278 86.5934C230.34 86.266 230.508 85.9681 230.757 85.7463C230.842 85.7012 230.937 85.6776 231.033 85.6776C231.129 85.6776 231.224 85.7012 231.309 85.7463C232.331 86.0196 233.4 86.0615 234.44 85.8691C235.7 85.6428 236.91 85.1938 238.013 84.5432C239.291 83.8541 240.382 82.8639 241.192 81.6581C241.903 80.4778 242.26 79.1188 242.223 77.7417C242.286 76.971 242.11 76.1997 241.72 75.5319C241.361 75.0629 240.832 74.7542 240.247 74.6725C239.25 74.5395 238.245 74.4739 237.239 74.4761C235.89 74.5076 234.543 74.3506 233.237 74.0096C232.108 73.6658 231.149 72.9126 230.548 71.8979C229.744 70.3921 229.378 68.6906 229.492 66.9871C229.447 63.5746 230.33 60.2139 232.046 57.2638C233.644 54.4632 235.957 52.1372 238.749 50.5237C242.432 48.3998 245.219 47.8474 247.159 48.8418C247.313 48.9206 247.445 49.0375 247.542 49.1814C247.638 49.3254 247.697 49.4916 247.711 49.6644C247.696 49.9707 247.634 50.2729 247.527 50.5606L246.017 55.1276C245.956 55.452 245.788 55.7462 245.538 55.9624C245.454 56.0109 245.359 56.0365 245.262 56.0365C245.165 56.0365 245.07 56.0109 244.986 55.9624C243.488 55.3159 241.671 55.6064 239.535 56.8341C238.303 57.4686 237.276 58.4376 236.57 59.6298C235.864 60.8221 235.509 62.1892 235.545 63.5741C235.49 64.3164 235.652 65.0587 236.011 65.7103C236.294 66.145 236.734 66.4531 237.239 66.5697C238.081 66.7221 238.937 66.792 239.793 66.7784H240.824C242.26 66.784 243.688 67.0033 245.059 67.4291C246.109 67.8112 246.965 68.5921 247.441 69.6021C248.08 71.1567 248.361 72.835 248.264 74.5129C248.266 77.7598 247.42 80.9509 245.808 83.7697C244.163 86.6917 241.741 89.1011 238.811 90.7308C237.134 91.7833 235.303 92.5663 233.384 93.0511Z" fill="#DCC2EF"/>
<path d="M118.24 198.74C114.309 194.185 107.367 192.229 98.3439 193.952C80.2991 197.384 60.7491 214.253 54.7329 231.582C51.707 240.255 52.6251 247.409 56.5554 251.964L63.8012 260.361C67.7315 264.917 74.6741 266.873 83.7033 265.157C101.742 261.717 121.292 244.848 127.314 227.527C130.334 218.846 129.416 211.692 125.485 207.137L118.24 198.74ZM58.4494 232.873C61.1458 225.125 66.8897 217.196 74.6113 210.533C82.3328 203.871 91.0181 199.35 99.0775 197.817C106.363 196.427 112.113 197.669 115.257 201.313C118.401 204.957 118.788 210.827 116.346 217.83C113.649 225.578 107.89 233.534 100.19 240.178C92.4906 246.821 83.7769 251.354 75.7175 252.886C68.4323 254.276 62.6825 253.034 59.5383 249.39C56.394 245.746 55.9947 239.862 58.4494 232.873Z" fill="#444255"/>
<path opacity="0.3" d="M76.4755 256.795C94.5213 253.349 114.064 236.486 120.094 219.159C126.124 201.831 116.408 190.541 98.3692 193.981C80.3308 197.421 60.7744 214.283 54.7509 231.617C48.7274 248.952 58.4117 260.206 76.4755 256.795ZM59.5636 249.42C56.3939 245.746 56.0254 239.912 58.4674 232.909C61.1638 225.161 66.915 217.225 74.6366 210.563C82.3581 203.9 91.0435 199.379 99.1029 197.847C106.388 196.457 112.13 197.705 115.275 201.349C118.419 204.993 118.813 210.857 116.371 217.86C113.649 225.578 107.89 233.534 100.19 240.178C92.4906 246.821 83.7695 251.36 75.7101 252.893C68.4249 254.283 62.6825 253.034 59.5382 249.39L59.5636 249.42Z" fill="white"/>
<path d="M59.5382 249.39C60.8361 250.858 62.5046 251.951 64.3692 252.553C63.763 249.385 64.1977 245.537 65.6951 241.271C68.3842 233.529 74.1291 225.586 81.8507 218.923C89.5722 212.261 98.2639 207.748 106.323 206.215C110.076 205.347 113.99 205.463 117.685 206.549C117.356 204.619 116.517 202.812 115.257 201.314C112.087 197.64 106.363 196.427 99.0775 197.818C91.0245 199.357 82.3328 203.871 74.6112 210.533C66.8897 217.196 61.1448 225.139 58.4494 232.874C55.9873 239.868 56.394 245.746 59.5382 249.39Z" fill="#444255"/>
<path opacity="0.1" d="M59.5382 249.39C60.8361 250.858 62.5046 251.951 64.3692 252.553C63.763 249.385 64.1977 245.537 65.6951 241.271C68.3842 233.529 74.1291 225.586 81.8507 218.923C89.5722 212.261 98.2639 207.748 106.323 206.215C110.076 205.347 113.99 205.463 117.685 206.549C117.356 204.619 116.517 202.812 115.257 201.314C112.087 197.64 106.363 196.427 99.0775 197.818C91.0245 199.357 82.3328 203.871 74.6112 210.533C66.8897 217.196 61.1448 225.139 58.4494 232.874C55.9873 239.868 56.394 245.746 59.5382 249.39Z" fill="black"/>
<path opacity="0.4" d="M61.7195 236.678C64.4222 228.937 70.1671 220.994 77.8887 214.332C85.6102 207.669 94.3019 203.156 102.355 201.616C108.37 200.476 113.324 201.123 116.624 203.402C118.425 206.975 118.335 212.025 116.301 217.779C113.649 225.578 107.89 233.534 100.19 240.178C92.4906 246.821 83.7696 251.36 75.7102 252.893C69.7019 254.04 64.7414 253.385 61.4489 251.1C59.6476 247.438 59.7113 242.461 61.7195 236.678Z" fill="white"/>
<path opacity="0.1" d="M95.0668 248.931L102.306 257.321C96.6592 261.09 90.3457 263.75 83.7034 265.157C74.6741 266.873 67.7316 264.917 63.8013 260.362L56.5555 251.964C55.7571 251.034 55.0835 250.004 54.5519 248.899C57.7609 255.589 65.6066 258.829 76.4502 256.766C83.0972 255.36 89.4154 252.701 95.0668 248.931Z" fill="black"/>
<path d="M81.9772 261.314C81.2931 260.598 80.4495 260.052 79.515 259.723C78.5804 259.393 77.5813 259.289 76.5989 259.419C76.2452 259.447 75.9053 259.568 75.6136 259.77C75.322 259.972 75.0891 260.248 74.9387 260.569L69.7154 275.445C69.6237 275.788 69.6281 276.15 69.7279 276.491C69.8278 276.832 70.0193 277.139 70.2817 277.378C70.9579 278.097 71.7934 278.647 72.721 278.985C73.6485 279.322 74.6423 279.437 75.6222 279.32C75.9778 279.292 76.3194 279.169 76.6115 278.964C76.9037 278.759 77.1357 278.48 77.2835 278.155L82.5552 263.276C82.6424 262.928 82.6348 262.562 82.5332 262.217C82.4316 261.872 82.2396 261.56 81.9772 261.314Z" fill="#37474F"/>
<path d="M82.5488 263.269C82.6354 262.922 82.628 262.558 82.5276 262.214C82.4272 261.871 82.2372 261.56 81.9772 261.314C81.487 260.765 80.89 260.32 80.2225 260.009L73.4347 279.221C74.1499 279.4 74.8937 279.433 75.6222 279.32C75.9778 279.292 76.3194 279.169 76.6115 278.964C76.9036 278.759 77.1356 278.48 77.2835 278.155L82.5551 263.277L82.5488 263.269Z" fill="#263238"/>
<path d="M77.3707 277.811C76.4803 276.875 75.3814 276.163 74.1637 275.733C72.946 275.303 71.6438 275.166 70.3633 275.334C69.9094 275.372 69.4732 275.528 69.0981 275.786C68.723 276.045 68.4221 276.397 68.2252 276.807L49.6386 324.887L62.6167 329.53L78.104 280.28C78.2076 279.84 78.1945 279.381 78.0659 278.948C77.9372 278.515 77.6976 278.123 77.3707 277.811Z" fill="#444255"/>
<path opacity="0.1" d="M62.5737 329.554L78.0609 280.304C78.176 279.855 78.1684 279.383 78.039 278.938C77.9097 278.493 77.6632 278.091 77.3253 277.773C76.3814 276.764 75.1833 276.027 73.8566 275.64L55.8653 327.127L62.5737 329.554Z" fill="black"/>
<path d="M59.7203 331.491C58.0401 331.713 56.3311 331.536 54.7323 330.973C53.1335 330.411 51.6899 329.479 50.5191 328.254C48.4905 325.903 49.3331 323.522 52.3668 322.968C54.0455 322.744 55.7533 322.92 57.3512 323.481C58.949 324.043 60.3917 324.973 61.5617 326.198C63.6366 328.573 62.8014 330.947 59.7203 331.491Z" fill="#444255"/>
<g opacity="0.2">
<path d="M59.7203 331.491C58.0401 331.713 56.3311 331.536 54.7323 330.973C53.1335 330.411 51.6899 329.479 50.5191 328.254C48.4905 325.903 49.3331 323.522 52.3668 322.968C54.0455 322.744 55.7533 322.92 57.3512 323.481C58.949 324.043 60.3917 324.973 61.5617 326.198C63.6366 328.573 62.8014 330.947 59.7203 331.491Z" fill="black"/>
</g>
<defs>
<radialGradient id="paint0_radial_338_435" cx="0" cy="0" r="1" gradientUnits="userSpaceOnUse" gradientTransform="translate(178.175 272.987) rotate(69.8485) scale(80.9697 140.236)">
<stop stop-color="#D2D1D6"/>
<stop offset="1" stop-color="#D2D1D6" stop-opacity="0.13"/>
</radialGradient>
</defs>
</svg>
