<svg width="122" height="27" viewBox="0 0 122 27" fill="none" xmlns="http://www.w3.org/2000/svg">
<g clip-path="url(#clip0_82_845)">
<path d="M2.8219 25.6858V11.2493H0V7.51133H2.8219V6.44796C2.8219 2.9309 5.38606 0.403564 9.49077 0.403564H11.5792V3.99427H9.6734C7.76759 3.99427 6.88832 4.91035 6.88832 6.59525V7.51133H11.8723V11.2493H6.88832V25.6858H2.8219V25.6858Z" fill="black"/>
<path d="M12.348 16.5985C12.348 11.2861 16.5617 7.14456 21.9478 7.14456C27.3338 7.14456 31.5107 11.2846 31.5107 16.5985C31.5107 21.9124 27.297 26.0525 21.9478 26.0525C16.5985 26.0525 12.348 21.9124 12.348 16.5985V16.5985ZM27.4443 16.5985C27.4443 13.3377 25.1364 10.9562 21.9478 10.9562C18.7592 10.9562 16.4144 13.3377 16.4144 16.5985C16.4144 19.8593 18.7592 22.2408 21.9478 22.2408C25.1364 22.2408 27.4443 19.8593 27.4443 16.5985V16.5985Z" fill="black"/>
<path d="M61.2438 25.6857V7.51129H65.1276V9.38028C66.2999 7.98848 68.1689 7.14456 70.4768 7.14456C74.9468 7.14456 78.1354 10.3332 78.1354 15.3525V25.6857H74.069V15.7192C74.069 12.7515 72.4563 10.993 69.8185 10.993C67.1807 10.993 65.3117 12.8252 65.3117 15.7192V25.6857H61.2438V25.6857Z" fill="black"/>
<path d="M80.6273 16.5986C80.6273 11.2861 84.5848 7.1446 89.7882 7.1446C92.2434 7.1446 94.3318 8.09751 95.6868 9.74558V0.403564H99.7547V25.6858H95.8709V23.2674C94.5512 25.026 92.3538 26.0525 89.7882 26.0525C84.5848 26.0525 80.6273 21.9124 80.6273 16.5986V16.5986ZM95.7236 16.5986C95.7236 13.3378 93.4157 10.9562 90.2271 10.9562C87.0384 10.9562 84.6937 13.3378 84.6937 16.5986C84.6937 19.8593 87.0384 22.2041 90.2271 22.2041C93.4157 22.2041 95.7236 19.8593 95.7236 16.5986V16.5986Z" fill="black"/>
<path d="M103.418 2.34471C103.418 0.989727 104.407 0 105.762 0C107.117 0 108.107 0.989727 108.107 2.34471C108.107 3.69969 107.117 4.6526 105.762 4.6526C104.407 4.6526 103.418 3.66287 103.418 2.34471ZM103.711 25.6858V7.51132H107.779V25.6858H103.711V25.6858Z" fill="black"/>
<path d="M119.21 25.6857C115.07 25.6857 113.091 23.8904 113.091 20.1156V11.2478H110.086V7.50982H112.175C112.724 7.50982 113.091 7.14309 113.091 6.48327V2.96768H117.159V7.51129H121.996V11.2493H117.159V19.7135C117.159 21.1421 117.855 21.8756 119.504 21.8756H121.996V25.6857H119.21Z" fill="black"/>
<path d="M33.0336 9.56291C33.0248 9.69399 33.0056 9.99887 32.988 10.4289C32.9703 10.859 32.9556 11.4187 32.9556 12.0696C32.9556 13.2007 33.0012 14.6088 33.1647 16.1037C33.2869 17.2259 33.4755 18.3968 33.7641 19.5397C33.9806 20.3969 34.2516 21.2393 34.5977 22.0346C35.1162 23.2261 35.7996 24.316 36.7274 25.1673C37.1899 25.5915 37.7142 25.9538 38.3004 26.2277C38.8866 26.5031 39.5317 26.6887 40.2298 26.7697L40.2798 26.7741C40.5214 26.7874 40.7614 26.7933 41 26.7933C42.7674 26.7933 44.417 26.4369 45.9295 25.8153C47.2536 25.2734 48.476 24.5311 49.5983 23.6547C51.563 22.1201 53.2258 20.1774 54.6279 18.1317C56.7282 15.0624 58.2407 11.7589 59.2363 9.21386C60.2305 6.66885 60.7047 4.88528 60.7106 4.86319C60.827 4.42576 60.5663 3.97508 60.1274 3.85873C59.69 3.74238 59.2393 4.00307 59.1229 4.44196C59.117 4.46406 58.7606 5.794 58.0286 7.76904C56.9314 10.7309 54.9785 15.1463 52.13 18.7635C50.7073 20.5722 49.0637 22.179 47.2123 23.3219C46.2859 23.8933 45.3095 24.3514 44.2756 24.6651C43.2431 24.9803 42.1532 25.1526 40.9986 25.1526C40.7909 25.1526 40.5803 25.1467 40.3667 25.1349L40.3225 25.9538L40.4168 25.1393C39.7894 25.0657 39.2474 24.8875 38.7614 24.6238C38.3357 24.3926 37.9528 24.0936 37.6023 23.7328C36.9896 23.101 36.4815 22.2732 36.075 21.3233C35.4638 19.8976 35.0867 18.2053 34.8702 16.5602C34.6537 14.9151 34.5933 13.3171 34.5933 12.0696C34.5933 11.4452 34.6081 10.9076 34.6243 10.4967C34.6405 10.0843 34.6596 9.80004 34.6684 9.67043C34.6979 9.21828 34.3547 8.82798 33.9026 8.79853C33.4504 8.76907 33.0601 9.11224 33.0307 9.56439L33.0336 9.56291Z" fill="#F412D8"/>
<path d="M32.9982 9.49522C32.9938 9.5232 32.8274 10.7132 32.8274 12.3849C32.8274 13.3525 32.8834 14.4821 33.0645 15.6471C33.2 16.5205 33.4062 17.413 33.7184 18.2731C33.9526 18.9182 34.2457 19.5442 34.6183 20.1259C35.175 20.9978 35.9159 21.774 36.8747 22.3234C37.832 22.8742 38.997 23.185 40.3461 23.1835C41.6981 23.1835 42.978 22.9037 44.1636 22.4235C46.2432 21.5796 48.0385 20.1348 49.5762 18.4705C51.8811 15.9711 53.6205 12.9593 54.7987 10.5645C55.9755 8.16969 56.5867 6.39201 56.5956 6.36845C56.7502 5.91777 56.5101 5.42585 56.0595 5.2712C55.6088 5.11656 55.1169 5.35663 54.9622 5.80731L55.0948 5.85296L54.9622 5.80731L55.0948 5.85296L54.9622 5.80731C54.9578 5.82056 54.6102 6.82796 53.9416 8.32581C52.9415 10.5718 51.211 13.9225 48.8766 16.6575C47.7116 18.0257 46.3964 19.2364 44.9692 20.0921C44.2549 20.5207 43.5141 20.8609 42.7438 21.095C41.975 21.3292 41.1782 21.4559 40.3461 21.4559C39.701 21.4559 39.1413 21.3705 38.6523 21.2202C38.2238 21.0892 37.8482 20.9095 37.5109 20.6871C36.9218 20.2997 36.4431 19.7813 36.0499 19.1568C35.4608 18.2231 35.0764 17.0507 34.8525 15.8474C34.6257 14.6456 34.5565 13.4188 34.5565 12.3849C34.5565 11.6072 34.5962 10.9371 34.6345 10.4658C34.6537 10.2301 34.6728 10.0446 34.6875 9.91938C34.6949 9.85605 34.7008 9.80892 34.7052 9.77799C34.7067 9.76179 34.7082 9.75148 34.7096 9.74412V9.73676L34.4195 9.69699L34.7096 9.73823L34.4195 9.69699L34.7096 9.73823C34.7759 9.26546 34.4475 8.82951 33.9747 8.76176C33.5019 8.69401 33.066 9.02392 32.9982 9.49669V9.49522Z" fill="#00AEFF"/>
<path d="M32.9894 9.61004V9.63066C32.9894 9.75879 32.9953 10.4083 33.1043 11.32C33.1867 12.0048 33.3267 12.837 33.5726 13.7148C33.7567 14.3716 33.9997 15.0535 34.3267 15.7163C34.5712 16.2126 34.8643 16.6987 35.2148 17.1508C35.7421 17.8283 36.4063 18.4336 37.2325 18.8652C38.0573 19.2967 39.0367 19.5471 40.1472 19.5456C41.0987 19.5456 42.0015 19.3571 42.8366 19.0345C44.3005 18.469 45.5613 17.5058 46.6379 16.4056C48.2521 14.7516 49.4672 12.7751 50.2934 11.2051C51.1196 9.63508 51.5512 8.47009 51.56 8.44505C51.7264 7.99731 51.4982 7.50098 51.0504 7.33455C50.6027 7.16812 50.1064 7.39641 49.9399 7.84414C49.9326 7.86623 49.6866 8.52163 49.2227 9.48632C48.529 10.9341 47.3389 13.077 45.766 14.809C44.981 15.6751 44.1017 16.4365 43.1606 16.9697C42.2165 17.5043 41.2209 17.815 40.1458 17.815C39.4683 17.815 38.8998 17.6987 38.4078 17.5043C37.9778 17.3334 37.6022 17.1007 37.2664 16.815C36.6802 16.3172 36.2119 15.65 35.8511 14.9063C35.3091 13.7913 35.0145 12.5144 34.8687 11.4952C34.7214 10.476 34.7155 9.71755 34.7155 9.63066V9.62182C34.7185 9.14463 34.3355 8.75581 33.8583 8.75139C33.3812 8.74697 32.9923 9.13138 32.9879 9.60856L32.9894 9.61004Z" fill="#FFA000"/>
</g>
<defs>
<clipPath id="clip0_82_845">
<rect width="122" height="26.7933" fill="white"/>
</clipPath>
</defs>
</svg>
