<svg width="347" height="404" viewBox="0 0 347 404" fill="none" xmlns="http://www.w3.org/2000/svg">
<path d="M274.773 322.646C275.317 315.771 281.431 301.942 289.285 293.593C297.138 285.243 308.855 279.625 316.6 282.992C323.817 286.096 322.234 295.796 312.704 301.508C303.175 307.219 289.021 314.25 284.163 325.067L274.773 338.073V322.646Z" fill="#73D7C3"/>
<path opacity="0.1" d="M274.773 322.646C275.317 315.771 281.431 301.942 289.285 293.593C297.138 285.243 308.855 279.625 316.6 282.992C323.817 286.096 322.234 295.796 312.704 301.508C303.175 307.219 289.021 314.25 284.163 325.067L274.773 338.073V322.646Z" fill="black"/>
<path d="M273.501 332.005C273.613 332.005 273.722 331.97 273.812 331.902C273.902 331.835 273.967 331.74 273.998 331.632C280.485 308.554 300.987 291.016 312.673 287.726C312.789 287.677 312.882 287.588 312.936 287.475C312.99 287.363 313.001 287.234 312.967 287.113C312.933 286.993 312.855 286.889 312.75 286.822C312.644 286.755 312.518 286.729 312.394 286.748C300.49 290.116 279.6 307.933 273.02 331.368C273.001 331.433 272.996 331.5 273.004 331.566C273.011 331.633 273.033 331.697 273.066 331.755C273.099 331.813 273.144 331.863 273.198 331.904C273.251 331.944 273.312 331.973 273.377 331.989L273.501 332.005Z" fill="white"/>
<path d="M275.798 347.23C277.21 343.458 282.44 337.468 290.495 332.812C299.404 327.674 310.299 325.859 313.123 321.513C316.522 316.314 312.347 310.804 303.579 311.177C294.81 311.549 278.638 322.149 274.773 339.765L275.798 347.23Z" fill="#73D7C3"/>
<path d="M274.448 343.101C274.543 343.103 274.638 343.075 274.718 343.023C274.798 342.97 274.861 342.895 274.898 342.807C283.713 323.298 299.606 317.478 306.776 317.121C306.907 317.121 307.034 317.069 307.127 316.976C307.22 316.882 307.272 316.756 307.272 316.624C307.272 316.493 307.22 316.366 307.127 316.273C307.034 316.18 306.907 316.128 306.776 316.128C298.845 316.516 283.03 322.475 274.029 342.388C274.001 342.448 273.985 342.514 273.983 342.581C273.982 342.648 273.993 342.715 274.018 342.778C274.043 342.84 274.08 342.897 274.127 342.944C274.174 342.992 274.23 343.03 274.292 343.055C274.341 343.08 274.393 343.096 274.448 343.101Z" fill="white"/>
<path d="M273.425 266.343L178.8 321.088C177.62 321.688 176.315 322 174.992 322C173.668 322 172.363 321.688 171.183 321.088L6.57453 226.048C4.47516 224.845 4.47516 222.873 6.57453 221.657L101.2 166.912C102.38 166.312 103.685 166 105.008 166C106.332 166 107.637 166.312 108.817 166.912L273.425 261.952C275.525 263.155 275.525 265.127 273.425 266.343Z" fill="url(#paint0_linear_338_430)"/>
<path d="M272.5 404C313.645 404 347 385.644 347 363C347 340.356 313.645 322 272.5 322C231.355 322 198 340.356 198 363C198 385.644 231.355 404 272.5 404Z" fill="url(#paint1_radial_338_430)"/>
<path d="M251.114 233.25L163.345 284.04C162.249 284.591 161.039 284.878 159.812 284.878C158.585 284.878 157.375 284.591 156.279 284.04L3.52699 195.866C1.57304 194.748 1.57304 192.917 3.52699 191.799L91.3565 140.996C92.4505 140.445 93.6585 140.158 94.8834 140.158C96.1084 140.158 97.3163 140.445 98.4104 140.996L251.114 229.17C253.006 230.3 253.006 232.119 251.114 233.25Z" fill="#37474F"/>
<path d="M204.157 256.537C202.634 257.311 200.95 257.714 199.242 257.714C197.533 257.714 195.849 257.311 194.326 256.537C191.622 254.977 191.622 252.445 194.326 250.884C195.847 250.105 197.532 249.698 199.242 249.698C200.951 249.698 202.636 250.105 204.157 250.884C206.873 252.445 206.873 254.977 204.157 256.537Z" fill="#444255"/>
<path d="M163.284 284.04L251.114 233.25C252.859 232.242 253.043 230.669 251.667 229.563C252.54 230.253 253.257 231.12 253.772 232.107C254.286 233.094 254.586 234.179 254.653 235.29V238.608C254.59 239.838 254.237 241.037 253.621 242.105C253.006 243.173 252.147 244.08 251.114 244.752L163.346 295.543C162.261 296.12 161.047 296.412 159.819 296.39V284.925C161.03 284.924 162.221 284.62 163.284 284.04Z" fill="#455A64"/>
<path d="M3.52694 207.344C2.49596 206.671 1.63896 205.763 1.02597 204.696C0.412981 203.628 0.0614076 202.43 0 201.2V197.882C0.0646731 196.769 0.364185 195.682 0.878866 194.693C1.39355 193.704 2.11173 192.835 2.98622 192.143C1.60985 193.274 1.75732 194.834 3.52694 195.83L156.218 284.003C157.306 284.582 158.524 284.874 159.757 284.851V296.317C158.524 296.34 157.306 296.048 156.218 295.469L3.52694 207.344Z" fill="#444255"/>
<path d="M148.623 273.398L231.414 225.471C231.675 225.387 231.902 225.223 232.063 225.002C232.224 224.782 232.311 224.515 232.311 224.242C232.311 223.968 232.224 223.702 232.063 223.481C231.902 223.26 231.675 223.096 231.414 223.013L109.04 152.228C108.386 151.895 107.661 151.721 106.927 151.721C106.192 151.721 105.468 151.895 104.813 152.228L21.985 200.155C21.7246 200.239 21.4974 200.403 21.3362 200.624C21.175 200.844 21.0881 201.111 21.0881 201.384C21.0881 201.658 21.175 201.924 21.3362 202.145C21.4974 202.366 21.7246 202.53 21.985 202.613L144.383 273.398C145.04 273.731 145.767 273.905 146.503 273.905C147.24 273.905 147.966 273.731 148.623 273.398Z" fill="#EFE5F6"/>
<path d="M34.827 202.33L74.373 225.262C75.1976 225.68 76.1091 225.897 77.0336 225.897C77.958 225.897 78.8695 225.68 79.6942 225.262L149.25 185.114C149.571 185.005 149.85 184.798 150.047 184.522C150.245 184.247 150.351 183.916 150.351 183.577C150.351 183.238 150.245 182.908 150.047 182.632C149.85 182.357 149.571 182.15 149.25 182.041L109.655 159.159C108.83 158.741 107.919 158.524 106.994 158.524C106.07 158.524 105.158 158.741 104.334 159.159L34.827 199.258C34.506 199.367 34.2272 199.574 34.0297 199.849C33.8323 200.125 33.7261 200.455 33.7261 200.794C33.7261 201.133 33.8323 201.464 34.0297 201.739C34.2272 202.015 34.506 202.221 34.827 202.33Z" fill="#B099E5"/>
<path d="M63.8658 191.405L74.0166 193.384C74.6505 193.516 75.3093 193.456 75.909 193.212L84.5113 189.525C85.8754 188.935 87.8171 189.525 87.7925 190.496L87.6573 196.641C87.6573 197.034 87.9769 197.403 88.5299 197.636L97.2796 201.212C98.6683 201.777 98.3365 203.019 96.7021 203.314L86.4407 205.169C86.172 205.195 85.9119 205.278 85.6786 205.414C85.4452 205.55 85.244 205.735 85.0889 205.956L81.9061 211.867C81.3899 212.801 79.2394 212.997 78.2194 212.198L72.0749 207.148C71.5829 206.793 70.985 206.615 70.379 206.644L59.6507 206.718C57.9425 206.718 56.9594 205.612 57.9794 204.825L64.3943 199.909C64.4856 199.857 64.5658 199.787 64.6302 199.704C64.6945 199.621 64.7417 199.526 64.7691 199.424C64.7965 199.322 64.8036 199.216 64.7899 199.112C64.7762 199.008 64.7419 198.907 64.6892 198.816L61.2483 192.954C60.7076 191.971 62.2437 191.086 63.8658 191.405Z" fill="#EFE5F6"/>
<path d="M86.4408 178.453L108.217 165.881C108.644 165.629 109.124 165.481 109.619 165.446C110.114 165.412 110.61 165.494 111.068 165.685C111.756 166.09 111.596 166.828 110.724 167.331L88.96 179.903C88.5314 180.151 88.0515 180.298 87.5573 180.332C87.0631 180.366 86.5677 180.287 86.109 180.1C85.4208 179.694 85.5806 178.957 86.4408 178.453Z" fill="#EFE5F6"/>
<path d="M91.9463 181.623L113.71 169.052C114.137 168.8 114.618 168.651 115.112 168.617C115.607 168.583 116.103 168.664 116.561 168.855C117.249 169.261 117.102 169.998 116.217 170.502L94.4532 183.074C94.0245 183.322 93.5447 183.469 93.0505 183.503C92.5563 183.537 92.0609 183.457 91.6022 183.27C90.9017 182.865 91.0615 182.127 91.9463 181.623Z" fill="#EFE5F6"/>
<path d="M97.4271 184.794L119.191 172.222C119.617 171.968 120.098 171.817 120.593 171.783C121.088 171.749 121.585 171.832 122.042 172.026C122.742 172.431 122.583 173.169 121.698 173.672L99.9587 186.244C99.53 186.492 99.0502 186.639 98.556 186.673C98.0618 186.707 97.5663 186.628 97.1076 186.441C96.3948 186.035 96.5423 185.298 97.4271 184.794Z" fill="#EFE5F6"/>
<path d="M102.908 187.952L124.684 175.393C125.108 175.139 125.586 174.988 126.08 174.954C126.573 174.92 127.068 175.003 127.523 175.196C128.223 175.59 128.064 176.327 127.191 176.843L105.415 189.402C104.989 189.657 104.508 189.808 104.013 189.842C103.518 189.876 103.021 189.793 102.564 189.599C101.876 189.206 102.035 188.469 102.908 187.952Z" fill="#EFE5F6"/>
<path d="M108.401 191.123L130.165 178.564C130.591 178.309 131.072 178.158 131.567 178.124C132.062 178.09 132.559 178.173 133.016 178.367C133.704 178.76 133.557 179.497 132.672 180.014L110.908 192.573C110.482 192.828 110.002 192.978 109.506 193.012C109.011 193.046 108.514 192.963 108.057 192.77C107.332 192.376 107.516 191.639 108.401 191.123Z" fill="#EFE5F6"/>
<path d="M113.882 194.293L135.597 181.734C136.023 181.479 136.504 181.329 136.999 181.295C137.494 181.261 137.991 181.344 138.448 181.537C139.136 181.931 138.989 182.668 138.104 183.184L116.389 195.768C115.963 196.023 115.483 196.173 114.987 196.207C114.492 196.242 113.995 196.158 113.538 195.965C112.85 195.547 112.997 194.81 113.882 194.293Z" fill="#EFE5F6"/>
<path d="M83.6266 230.546L85.4209 231.591C85.9167 231.839 86.4637 231.969 87.0184 231.969C87.5731 231.969 88.1201 231.839 88.616 231.591L130.399 207.492C131.283 206.976 131.283 206.152 130.399 205.649L128.592 204.604C128.096 204.355 127.549 204.226 126.995 204.226C126.44 204.226 125.893 204.355 125.397 204.604L83.6144 228.703C83.421 228.768 83.2531 228.893 83.1347 229.059C83.0163 229.225 82.9533 229.425 82.9546 229.629C82.956 229.833 83.0216 230.031 83.1423 230.196C83.2629 230.361 83.4324 230.483 83.6266 230.546Z" fill="#B099E5"/>
<path d="M158.504 187.313L160.298 188.358C161.183 188.862 161.183 189.685 160.298 190.201L143.523 199.885C143.027 200.134 142.48 200.263 141.926 200.263C141.371 200.263 140.824 200.134 140.328 199.885L138.534 198.84C137.649 198.337 137.649 197.513 138.534 196.997L155.259 187.313C155.761 187.057 156.317 186.923 156.881 186.923C157.445 186.923 158.001 187.057 158.504 187.313Z" fill="#B099E5"/>
<path d="M94.7235 236.924L134.368 259.794C135.192 260.212 136.104 260.429 137.028 260.429C137.953 260.429 138.864 260.212 139.689 259.794L209.245 219.646C209.566 219.537 209.845 219.33 210.042 219.054C210.239 218.779 210.346 218.448 210.346 218.109C210.346 217.771 210.239 217.44 210.042 217.165C209.845 216.889 209.566 216.682 209.245 216.573L169.65 193.691C168.825 193.273 167.913 193.056 166.989 193.056C166.065 193.056 165.153 193.273 164.328 193.691L94.7235 233.864C94.4068 233.976 94.1326 234.183 93.9386 234.457C93.7446 234.731 93.6404 235.058 93.6404 235.394C93.6404 235.73 93.7446 236.057 93.9386 236.331C94.1326 236.605 94.4068 236.812 94.7235 236.924Z" fill="#B099E5"/>
<path d="M123.799 225.987L133.962 227.978C134.596 228.109 135.255 228.049 135.855 227.806L144.457 224.119C145.834 223.529 147.775 224.119 147.751 225.077L147.615 231.222C147.615 231.615 147.923 231.984 148.476 232.205L157.238 235.781C158.626 236.359 158.282 237.6 156.66 237.895L146.411 239.726C146.143 239.755 145.884 239.84 145.651 239.975C145.418 240.111 145.217 240.294 145.059 240.512L141.876 246.423C141.373 247.357 139.222 247.554 138.19 246.755L132.045 241.704C131.549 241.349 130.947 241.172 130.337 241.201L119.609 241.274C117.913 241.274 116.918 240.168 117.938 239.382L124.352 234.466C124.534 234.358 124.668 234.185 124.725 233.981C124.782 233.777 124.759 233.559 124.66 233.373L121.206 227.511C120.653 226.564 122.19 225.68 123.799 225.987Z" fill="#EFE5F6"/>
<path d="M146.399 213.047L168.163 200.475C168.59 200.223 169.07 200.074 169.565 200.04C170.06 200.006 170.556 200.087 171.014 200.278C171.714 200.684 171.554 201.421 170.67 201.925L148.906 214.497C148.477 214.745 147.997 214.892 147.503 214.926C147.009 214.96 146.513 214.88 146.055 214.693C145.428 214.288 145.514 213.55 146.399 213.047Z" fill="#EFE5F6"/>
<path d="M151.88 216.217L173.693 203.645C174.12 203.394 174.6 203.245 175.095 203.211C175.59 203.176 176.086 203.258 176.544 203.449C177.232 203.854 177.072 204.592 176.2 205.095L154.424 217.667C153.998 217.922 153.519 218.075 153.024 218.113C152.529 218.151 152.032 218.075 151.572 217.888C150.847 217.458 151.007 216.721 151.88 216.217Z" fill="#EFE5F6"/>
<path d="M157.373 219.375L179.137 206.828C179.563 206.574 180.043 206.423 180.539 206.389C181.034 206.355 181.531 206.438 181.988 206.632C182.676 207.025 182.529 207.762 181.644 208.278L159.88 220.838C159.451 221.086 158.971 221.233 158.477 221.267C157.983 221.301 157.488 221.221 157.029 221.034C156.328 220.629 156.488 219.892 157.373 219.375Z" fill="#EFE5F6"/>
<path d="M162.854 222.546L184.618 209.987C185.044 209.732 185.524 209.581 186.02 209.547C186.515 209.513 187.012 209.596 187.469 209.79C188.169 210.183 188.009 210.92 187.125 211.437L165.361 224.033C164.935 224.287 164.454 224.438 163.959 224.472C163.463 224.506 162.967 224.423 162.51 224.229C161.822 223.799 161.969 223.062 162.854 222.546Z" fill="#EFE5F6"/>
<path d="M168.335 225.716L190.111 213.157C190.535 212.903 191.013 212.752 191.507 212.718C192 212.684 192.495 212.767 192.95 212.96C193.65 213.354 193.49 214.091 192.618 214.607L170.842 227.167C170.415 227.421 169.935 227.572 169.44 227.606C168.944 227.64 168.448 227.557 167.991 227.363C167.302 226.97 167.462 226.233 168.335 225.716Z" fill="#EFE5F6"/>
<path d="M173.828 228.948L195.592 216.389C196.018 216.135 196.498 215.984 196.994 215.95C197.489 215.916 197.986 215.999 198.443 216.192C199.131 216.586 198.983 217.323 198.099 217.839L176.335 230.399C175.909 230.653 175.428 230.804 174.933 230.838C174.437 230.872 173.941 230.789 173.484 230.595C172.783 230.177 172.943 229.403 173.828 228.948Z" fill="#EFE5F6"/>
<path d="M143.56 265.14L145.367 266.184C145.862 266.433 146.409 266.562 146.964 266.562C147.519 266.562 148.066 266.433 148.562 266.184L190.344 242.085C190.538 242.021 190.707 241.898 190.826 241.732C190.946 241.567 191.01 241.368 191.01 241.164C191.01 240.96 190.946 240.761 190.826 240.595C190.707 240.43 190.538 240.306 190.344 240.242L188.538 239.197C188.042 238.949 187.495 238.819 186.94 238.819C186.386 238.819 185.839 238.949 185.343 239.197L143.56 263.296C143.366 263.36 143.198 263.484 143.078 263.649C142.959 263.815 142.894 264.014 142.894 264.218C142.894 264.422 142.959 264.621 143.078 264.786C143.198 264.952 143.366 265.075 143.56 265.14Z" fill="#B099E5"/>
<path d="M218.437 221.907L220.243 222.951C221.128 223.455 221.128 224.279 220.243 224.795L203.469 234.479C202.973 234.727 202.426 234.857 201.871 234.857C201.317 234.857 200.77 234.727 200.274 234.479L198.467 233.434C198.274 233.37 198.105 233.246 197.985 233.081C197.866 232.915 197.802 232.716 197.802 232.512C197.802 232.308 197.866 232.109 197.985 231.944C198.105 231.778 198.274 231.655 198.467 231.591L215.254 221.907C215.748 221.658 216.293 221.529 216.846 221.529C217.398 221.529 217.943 221.658 218.437 221.907Z" fill="#B099E5"/>
<path d="M54.8335 170.195C54.4969 170.36 54.1269 170.445 53.7521 170.445C53.3772 170.445 53.0073 170.36 52.6706 170.195C52.5434 170.15 52.4332 170.067 52.3552 169.957C52.2772 169.847 52.2354 169.715 52.2354 169.58C52.2354 169.445 52.2772 169.314 52.3552 169.204C52.4332 169.094 52.5434 169.011 52.6706 168.966C53.0073 168.801 53.3772 168.715 53.7521 168.715C54.1269 168.715 54.4969 168.801 54.8335 168.966C55.4357 169.298 55.4357 169.851 54.8335 170.195Z" fill="#444255"/>
<path d="M51.3804 180.014C50.7099 180.353 49.969 180.529 49.2175 180.529C48.4661 180.529 47.7252 180.353 47.0547 180.014C46.8105 179.914 46.6015 179.744 46.4544 179.525C46.3073 179.306 46.2288 179.048 46.2288 178.785C46.2288 178.521 46.3073 178.263 46.4544 178.044C46.6015 177.826 46.8105 177.655 47.0547 177.556C47.7252 177.217 48.4661 177.04 49.2175 177.04C49.969 177.04 50.7099 177.217 51.3804 177.556C51.6246 177.655 51.8336 177.826 51.9807 178.044C52.1278 178.263 52.2063 178.521 52.2063 178.785C52.2063 179.048 52.1278 179.306 51.9807 179.525C51.8336 179.744 51.6246 179.914 51.3804 180.014Z" fill="#444255"/>
<path d="M54.4895 175.663C53.6907 175.196 53.7399 174.434 54.5878 173.943L68.8185 165.721C69.2808 165.485 69.7925 165.362 70.3116 165.362C70.8307 165.362 71.3425 165.485 71.8047 165.721C72.5912 166.176 72.5544 166.95 71.7064 167.442L57.4757 175.651C57.0136 175.886 56.5027 176.01 55.9841 176.012C55.4655 176.014 54.9536 175.895 54.4895 175.663Z" fill="#444255"/>
<path d="M148.832 11.0275L143.843 8.13955C143.48 7.97109 143.08 7.90276 142.682 7.94166C142.284 7.98056 141.904 8.12527 141.582 8.36075L78.0843 45.1049C77.1563 45.7125 76.3837 46.5294 75.8288 47.4898C75.2739 48.4502 74.952 49.5275 74.8891 50.6349V181.513C74.8468 181.909 74.9111 182.309 75.0753 182.672C75.2395 183.035 75.4976 183.348 75.823 183.577L80.7386 186.453H80.8124C81.1655 186.596 81.5489 186.647 81.927 186.602C82.3051 186.556 82.6656 186.417 82.9753 186.195L99.7497 176.511V186.6C99.7497 188.382 100.032 189.415 100.499 189.697L105.415 192.561C105.98 192.868 106.804 192.081 107.725 190.103L119.621 164.91L146.374 149.377C147.302 148.769 148.075 147.953 148.63 146.992C149.185 146.032 149.506 144.954 149.569 143.847V13.0797C149.631 12.7032 149.595 12.3173 149.466 11.9582C149.337 11.5992 149.119 11.2789 148.832 11.0275Z" fill="url(#paint2_linear_338_430)"/>
<path opacity="0.4" d="M148.709 10.9539C148.356 10.8276 147.978 10.7874 147.606 10.8366C147.234 10.8857 146.879 11.0229 146.571 11.2365L83.0612 47.993C82.1387 48.5669 81.3775 49.3662 80.8492 50.3156L75.8599 47.4277C76.3846 46.4757 77.1466 45.6756 78.0719 45.105L141.569 8.34863C141.996 8.08669 142.482 7.9386 142.982 7.91851C143.278 7.91294 143.571 7.98496 143.83 8.12742L148.709 10.9539Z" fill="white"/>
<path opacity="0.2" d="M100.585 189.747C100.131 189.464 99.8481 188.432 99.8481 186.65V176.573L104.874 173.648V189.501C104.874 191.197 105.132 192.229 105.538 192.573L100.585 189.747Z" fill="black"/>
<path opacity="0.1" d="M80.8369 186.466L75.8476 183.59C75.5291 183.357 75.2767 183.046 75.1151 182.686C74.9535 182.326 74.8883 181.93 74.9259 181.538V50.6352C74.9707 49.499 75.3094 48.3939 75.909 47.4277L80.8983 50.3156C80.3021 51.2825 79.9675 52.3878 79.9275 53.5231V184.401C79.8812 184.795 79.9411 185.194 80.101 185.557C80.2609 185.92 80.515 186.234 80.8369 186.466Z" fill="black"/>
<path d="M92.5116 54.0514L137.108 28.2445C138.583 27.3966 139.775 28.0847 139.775 29.7806V58.1314C139.725 59.0569 139.457 59.9576 138.994 60.7604C138.531 61.5632 137.885 62.2455 137.108 62.752L92.5116 88.5589C91.0492 89.4069 89.8572 88.7187 89.8572 87.0228V58.6598C89.9079 57.7375 90.1745 56.8399 90.6356 56.0395C91.0966 55.239 91.7392 54.5581 92.5116 54.0514Z" fill="#E5F7FF"/>
<path d="M139.775 69.9166C139.71 70.8118 139.435 71.6791 138.971 72.4479C138.508 73.2167 137.87 73.8652 137.108 74.3406L92.5116 100.086C91.0492 100.934 89.8572 100.332 89.8572 98.7343C89.9236 97.8425 90.1983 96.9788 90.6594 96.2125C91.1204 95.4463 91.7548 94.7989 92.5116 94.3225L137.108 68.5771C138.583 67.7291 139.775 68.3313 139.775 69.9166Z" fill="#E5F7FF"/>
<path d="M139.775 81.4805C139.71 82.3758 139.435 83.2431 138.971 84.0118C138.508 84.7806 137.87 85.4291 137.108 85.9046L92.5116 111.711C91.0492 112.559 89.8572 111.957 89.8572 110.36C89.9236 109.468 90.1983 108.604 90.6594 107.838C91.1204 107.072 91.7548 106.424 92.5116 105.948L137.108 80.141C138.583 79.2562 139.775 79.8584 139.775 81.4805Z" fill="#E5F7FF"/>
<path d="M139.775 92.9708C139.71 93.8661 139.435 94.7333 138.971 95.5021C138.508 96.2709 137.87 96.9193 137.108 97.3948L92.5116 123.202C91.0492 124.05 89.8572 123.448 89.8572 121.85C89.9236 120.958 90.1983 120.094 90.6594 119.328C91.1204 118.562 91.7548 117.915 92.5116 117.438L137.108 91.6313C138.583 90.7833 139.775 91.3855 139.775 92.9708Z" fill="#E5F7FF"/>
<path d="M139.775 104.498C139.71 105.393 139.435 106.26 138.971 107.029C138.508 107.798 137.87 108.446 137.108 108.922L92.5116 134.667C91.0492 135.515 89.8572 134.913 89.8572 133.315C89.9236 132.424 90.1983 131.56 90.6594 130.794C91.1204 130.027 91.7548 129.38 92.5116 128.904L137.108 103.097C138.583 102.372 139.775 102.912 139.775 104.498Z" fill="#E5F7FF"/>
<path d="M89.8572 144.855C89.8572 146.44 91.0861 147.042 92.5116 146.194L97.1814 143.503C97.9382 143.027 98.5726 142.379 99.0337 141.613C99.4947 140.847 99.7694 139.983 99.8358 139.091C99.8358 137.494 98.6069 136.892 97.1814 137.74L92.5116 140.431C91.7532 140.908 91.1178 141.558 90.6567 142.326C90.1956 143.095 89.9217 143.961 89.8572 144.855Z" fill="#E5F7FF"/>
<path d="M106.595 135.208C106.595 136.793 107.824 137.395 109.261 136.547L137.108 120.449C137.87 119.973 138.508 119.325 138.971 118.556C139.435 117.787 139.71 116.92 139.775 116.025C139.775 114.44 138.546 113.837 137.108 114.685L109.261 130.784C108.5 131.259 107.862 131.908 107.398 132.677C106.935 133.445 106.66 134.313 106.595 135.208Z" fill="#E5F7FF"/>
<path d="M89.8572 156.443C89.8572 158.029 91.0861 158.631 92.5116 157.783L97.1814 155.092C97.9382 154.615 98.5726 153.968 99.0337 153.202C99.4947 152.435 99.7694 151.572 99.8358 150.68C99.8358 149.082 98.6069 148.48 97.1814 149.328L92.5116 152.019C91.7532 152.497 91.1178 153.146 90.6567 153.915C90.1956 154.683 89.9217 155.549 89.8572 156.443Z" fill="#E5F7FF"/>
<path d="M106.595 146.735C106.595 148.32 107.824 148.923 109.261 148.075L137.108 131.976C137.87 131.501 138.508 130.852 138.971 130.083C139.435 129.315 139.71 128.447 139.775 127.552C139.775 125.967 138.546 125.365 137.108 126.212L109.261 142.311C108.5 142.787 107.862 143.435 107.398 144.204C106.935 144.973 106.66 145.84 106.595 146.735Z" fill="#E5F7FF"/>
<path d="M89.8572 167.909C89.8572 169.494 91.0861 170.097 92.5116 169.249L97.1814 166.557C97.9382 166.081 98.5726 165.434 99.0337 164.667C99.4947 163.901 99.7694 163.037 99.8358 162.146C99.8358 160.548 98.6069 159.946 97.1814 160.794L92.5116 163.485C91.7532 163.963 91.1178 164.612 90.6567 165.38C90.1956 166.149 89.9217 167.015 89.8572 167.909Z" fill="#E5F7FF"/>
<path d="M106.595 158.262C106.595 159.847 107.824 160.45 109.261 159.602L137.108 143.503C137.868 143.029 138.505 142.382 138.969 141.616C139.432 140.849 139.708 139.984 139.775 139.091C139.775 137.494 138.546 136.892 137.108 137.74L109.261 153.838C108.5 154.314 107.862 154.962 107.398 155.731C106.935 156.5 106.66 157.367 106.595 158.262Z" fill="#E5F7FF"/>
<path d="M208.765 45.535L203.85 42.6471C203.488 42.4787 203.087 42.4103 202.689 42.4492C202.291 42.4881 201.911 42.6328 201.589 42.8683L138.054 79.6002C137.126 80.2078 136.354 81.0246 135.799 81.9851C135.244 82.9455 134.922 84.0228 134.859 85.1302V216.008C134.817 216.404 134.881 216.804 135.045 217.167C135.21 217.53 135.468 217.843 135.793 218.073L140.77 220.948H140.832C141.187 221.092 141.572 221.144 141.953 221.098C142.333 221.053 142.695 220.913 143.007 220.69L159.781 211.006V221.096C159.781 222.878 160.064 223.91 160.519 224.193L165.434 227.056H165.496C166.061 227.363 166.884 226.577 167.794 224.598L179.702 199.406L206.455 183.872C207.383 183.265 208.156 182.448 208.711 181.487C209.265 180.527 209.587 179.45 209.65 178.342V47.5873C209.694 47.1978 209.636 46.8035 209.481 46.4435C209.326 46.0835 209.079 45.7703 208.765 45.535Z" fill="url(#paint3_linear_338_430)"/>
<path opacity="0.4" d="M208.63 45.4614C208.277 45.3352 207.899 45.295 207.527 45.3441C207.155 45.3933 206.8 45.5304 206.492 45.7441L142.97 82.5005C142.048 83.0745 141.286 83.8738 140.758 84.8231L135.769 81.9352C136.297 80.9859 137.058 80.1866 137.981 79.6126L201.49 42.8562C201.916 42.5917 202.403 42.4434 202.904 42.4261C203.196 42.4221 203.484 42.4941 203.739 42.635L208.63 45.4614Z" fill="white"/>
<path opacity="0.2" d="M160.506 224.254C160.052 223.971 159.769 222.939 159.769 221.157V211.08L164.758 208.192V224.033C164.758 225.729 165.016 226.761 165.434 227.105L160.506 224.254Z" fill="black"/>
<path opacity="0.1" d="M140.758 220.973L135.781 218.097C135.461 217.866 135.207 217.555 135.045 217.195C134.883 216.835 134.819 216.438 134.859 216.045V85.1673C134.899 84.032 135.234 82.9267 135.83 81.9598L140.819 84.8478C140.223 85.8146 139.889 86.92 139.849 88.0552V218.933C139.807 219.323 139.869 219.717 140.029 220.075C140.188 220.434 140.44 220.743 140.758 220.973Z" fill="black"/>
<path d="M152.445 88.559L197.042 62.7521C198.504 61.9041 199.696 62.5923 199.696 64.2882V92.7127C199.646 93.6369 199.38 94.5365 198.919 95.3391C198.458 96.1417 197.815 96.8247 197.042 97.3333L152.445 123.14C150.97 123.988 149.778 123.3 149.778 121.604V93.1673C149.828 92.2435 150.096 91.3445 150.559 90.5437C151.023 89.7429 151.669 89.0628 152.445 88.559Z" fill="#E5F7FF"/>
<path d="M199.696 104.424C199.631 105.318 199.358 106.184 198.896 106.953C198.435 107.721 197.8 108.37 197.042 108.848L152.445 134.594C150.97 135.441 149.778 134.839 149.778 133.242C149.845 132.349 150.121 131.484 150.584 130.717C151.048 129.951 151.685 129.304 152.445 128.83L197.042 103.085C198.504 102.237 199.696 102.839 199.696 104.424Z" fill="#E5F7FF"/>
<path d="M199.696 115.951C199.631 116.845 199.358 117.711 198.896 118.48C198.435 119.248 197.8 119.898 197.042 120.375L152.445 146.121C150.97 146.969 149.778 146.366 149.778 144.769C149.845 143.876 150.121 143.011 150.584 142.244C151.048 141.478 151.685 140.831 152.445 140.357L197.042 114.661C198.504 113.764 199.696 114.366 199.696 115.951Z" fill="#E5F7FF"/>
<path d="M199.696 127.478C199.626 128.366 199.349 129.225 198.888 129.986C198.428 130.748 197.795 131.391 197.042 131.865L152.445 157.672C150.97 158.52 149.778 157.918 149.778 156.321C149.845 155.427 150.121 154.563 150.584 153.796C151.048 153.03 151.685 152.383 152.445 151.909L197.042 126.139C198.504 125.291 199.696 125.893 199.696 127.478Z" fill="#E5F7FF"/>
<path d="M199.696 139.005C199.631 139.899 199.358 140.765 198.896 141.534C198.435 142.302 197.8 142.952 197.042 143.429L152.445 169.236C150.97 170.084 149.778 169.482 149.778 167.884C149.845 166.991 150.121 166.126 150.584 165.36C151.048 164.594 151.685 163.947 152.445 163.473L197.042 137.666C198.504 136.781 199.696 137.42 199.696 139.005Z" fill="#E5F7FF"/>
<path d="M149.778 179.362C149.778 180.948 151.007 181.55 152.445 180.702L157.102 178.011C157.862 177.536 158.499 176.89 158.963 176.123C159.426 175.357 159.702 174.492 159.769 173.599C159.769 172.001 158.54 171.399 157.102 172.247L152.445 174.938C151.683 175.414 151.045 176.062 150.582 176.831C150.118 177.6 149.843 178.467 149.778 179.362Z" fill="#E5F7FF"/>
<path d="M166.528 169.716C166.528 171.301 167.757 171.903 169.195 171.055L197.042 154.956C197.8 154.479 198.435 153.83 198.897 153.061C199.358 152.293 199.632 151.426 199.696 150.532C199.696 148.947 198.467 148.345 197.042 149.193L169.182 165.292C168.424 165.769 167.789 166.418 167.328 167.187C166.866 167.955 166.593 168.822 166.528 169.716Z" fill="#E5F7FF"/>
<path d="M149.778 190.853C149.778 192.438 151.007 193.04 152.445 192.192L157.102 189.501C157.862 189.027 158.499 188.38 158.963 187.614C159.426 186.847 159.702 185.982 159.769 185.089C159.769 183.492 158.54 182.889 157.102 183.737L152.445 186.429C151.683 186.904 151.045 187.553 150.582 188.321C150.118 189.09 149.843 189.957 149.778 190.853Z" fill="#E5F7FF"/>
<path d="M166.528 181.243C166.528 182.828 167.757 183.43 169.195 182.582L197.042 166.484C197.8 166.006 198.435 165.357 198.897 164.588C199.358 163.82 199.632 162.953 199.696 162.06C199.696 160.474 198.467 159.872 197.042 160.72L169.182 176.819C168.424 177.296 167.789 177.946 167.328 178.714C166.866 179.483 166.593 180.349 166.528 181.243Z" fill="#E5F7FF"/>
<path d="M149.778 202.417C149.778 204.002 151.007 204.604 152.445 203.756L157.102 201.065C157.862 200.591 158.499 199.944 158.963 199.178C159.426 198.411 159.702 197.546 159.769 196.653C159.769 195.056 158.54 194.453 157.102 195.301L152.445 197.993C151.683 198.468 151.045 199.117 150.582 199.885C150.118 200.654 149.843 201.521 149.778 202.417Z" fill="#E5F7FF"/>
<path d="M166.528 192.77C166.528 194.355 167.757 194.957 169.195 194.109L197.042 178.011C197.798 177.534 198.433 176.887 198.894 176.121C199.355 175.354 199.63 174.491 199.696 173.599C199.696 172.001 198.467 171.399 197.042 172.247L169.182 188.395C168.43 188.868 167.799 189.509 167.338 190.269C166.877 191.028 166.6 191.884 166.528 192.77Z" fill="#E5F7FF"/>
<path d="M255.044 4.8276L248.432 1.04258H248.371C245.458 -0.591854 241.464 -0.346071 237.04 2.19775C228.131 7.34684 220.917 19.857 220.917 30.1429C220.917 35.2675 222.711 38.8804 225.624 40.564L231.596 43.9804L233.022 41.5226C234.649 41.1658 236.212 40.5606 237.655 39.7284C246.552 34.5916 253.778 22.0814 253.778 11.7955C253.773 10.4081 253.604 9.0262 253.274 7.67865L255.044 4.8276Z" fill="#C599E5"/>
<path d="M220.954 30.0568C220.954 35.1936 222.748 38.8066 225.661 40.4902L231.633 43.9065L233.058 41.5224C234.684 41.1554 236.246 40.5465 237.691 39.716C242.783 36.5113 246.918 31.9947 249.661 26.6405L226.312 13.1226C223.032 18.1811 221.181 24.0323 220.954 30.0568Z" fill="#263238"/>
<path d="M255.056 4.82752L248.494 1.0425H248.432C245.52 -0.604222 241.526 -0.358438 237.102 2.19767C232.674 4.92318 228.972 8.68 226.312 13.1472L249.661 26.6651C252.202 22.1525 253.618 17.0942 253.79 11.9183C253.785 10.5309 253.616 9.14901 253.286 7.80146L255.056 4.82752Z" fill="#455A64"/>
<path d="M243.307 5.74916C234.41 10.886 227.184 23.3962 227.184 33.7435C227.184 44.0909 234.41 48.1954 243.307 43.0463C252.205 37.8972 259.492 25.3378 259.492 15.0519C259.492 4.76604 252.217 0.563198 243.307 5.74916Z" fill="url(#paint4_linear_338_430)"/>
<path d="M244.487 14.2655C244.965 14.0991 245.477 14.0609 245.974 14.1549C246.379 14.2487 246.752 14.448 247.056 14.7324C247.348 15.0178 247.571 15.3668 247.707 15.7524C247.862 16.145 247.954 16.5599 247.977 16.9813C247.986 17.1865 247.939 17.3901 247.842 17.5712C247.768 17.7327 247.648 17.8693 247.498 17.9645L246.269 18.6649C246.073 18.7878 245.925 18.8124 245.827 18.751C245.707 18.6739 245.613 18.5626 245.556 18.4314C245.472 18.2728 245.356 18.1325 245.217 18.0186C245.078 17.9048 244.918 17.8195 244.745 17.7678C244.47 17.7283 244.19 17.7449 243.922 17.8167C243.654 17.8885 243.403 18.014 243.185 18.1857C242.872 18.3612 242.583 18.576 242.324 18.8247C242.054 19.0737 241.815 19.3542 241.612 19.6603C241.408 19.9562 241.247 20.2788 241.132 20.6189C241.021 20.9432 240.963 21.2836 240.96 21.6266C240.934 21.9386 241.003 22.2511 241.157 22.5237C241.229 22.6187 241.322 22.6959 241.428 22.7492C241.535 22.8025 241.652 22.8304 241.771 22.8309C242.139 22.8473 242.508 22.81 242.865 22.7203L244.487 22.3393C245.06 22.1879 245.652 22.1216 246.245 22.1427C246.692 22.1506 247.124 22.3062 247.474 22.5851C247.805 22.8853 248.037 23.2799 248.137 23.7157C248.276 24.3159 248.342 24.9307 248.334 25.5468C248.325 26.2391 248.234 26.928 248.063 27.599C247.884 28.3126 247.629 29.0048 247.301 29.6636C246.963 30.3416 246.551 30.9804 246.073 31.5684C245.599 32.1608 245.059 32.6968 244.463 33.166V34.9724C244.459 35.1738 244.408 35.3715 244.315 35.55C244.253 35.7147 244.141 35.8563 243.996 35.9556L242.582 36.7666C242.537 36.8081 242.478 36.8311 242.417 36.8311C242.355 36.8311 242.296 36.8081 242.251 36.7666C242.201 36.7095 242.164 36.6431 242.141 36.5714C242.118 36.4996 242.109 36.424 242.116 36.3488V34.53C241.646 34.6947 241.15 34.7698 240.653 34.7512C240.216 34.7319 239.792 34.5962 239.424 34.358C239.066 34.1 238.782 33.7525 238.601 33.3503C238.376 32.8259 238.259 32.2617 238.257 31.6913C238.245 31.4859 238.292 31.2814 238.392 31.1014C238.462 30.9377 238.577 30.7971 238.724 30.6959L239.953 29.9954C240.149 29.8848 240.297 29.8479 240.407 29.8971C240.529 29.9747 240.62 30.0919 240.665 30.2289C240.752 30.4115 240.85 30.5881 240.96 30.7573C241.077 30.9175 241.24 31.0377 241.427 31.1014C241.67 31.158 241.922 31.158 242.165 31.1014C242.557 31.0103 242.932 30.8524 243.271 30.6344C243.625 30.4291 243.962 30.1948 244.278 29.934C244.592 29.6701 244.876 29.3734 245.126 29.0491C245.367 28.7279 245.566 28.3768 245.716 28.0046C245.866 27.6381 245.941 27.2454 245.937 26.8494C245.955 26.7027 245.942 26.5539 245.9 26.4123C245.858 26.2707 245.787 26.1392 245.692 26.026C245.589 25.9442 245.47 25.8836 245.344 25.8478C245.217 25.8119 245.085 25.8015 244.954 25.8171C244.539 25.8399 244.127 25.9058 243.725 26.0138C243.234 26.1366 242.681 26.2472 242.042 26.3701C241.543 26.4878 241.029 26.5252 240.518 26.4807C240.121 26.4538 239.744 26.2936 239.449 26.026C239.14 25.707 238.92 25.3132 238.81 24.8832C238.657 24.2434 238.587 23.5868 238.601 22.9292C238.6 22.2281 238.691 21.5299 238.871 20.8524C239.042 20.1629 239.281 19.4919 239.584 18.8493C239.885 18.2082 240.256 17.6024 240.69 17.0428C241.105 16.4973 241.575 15.995 242.091 15.5435V13.737C242.096 13.5373 242.142 13.3407 242.226 13.1595C242.296 12.9957 242.411 12.8552 242.558 12.7539L243.971 11.9429C244.014 11.9022 244.072 11.8796 244.131 11.8796C244.19 11.8796 244.247 11.9022 244.291 11.9429C244.344 11.9977 244.385 12.0634 244.41 12.1356C244.436 12.2077 244.445 12.2845 244.438 12.3607L244.487 14.2655Z" fill="#FAFAFA"/>
<path d="M255.044 125.075L248.432 121.29H248.371C245.458 119.644 241.464 119.889 237.04 122.446C228.131 127.582 220.917 140.093 220.917 150.379C220.917 155.515 222.711 159.116 225.624 160.812L231.596 164.216L233.022 161.832C234.647 161.469 236.209 160.865 237.655 160.038C246.552 154.889 253.778 142.378 253.778 132.092C253.772 130.705 253.603 129.323 253.274 127.976L255.044 125.075Z" fill="#C599E5"/>
<path d="M220.954 150.354C220.954 155.491 222.748 159.091 225.661 160.787L231.633 164.191L233.058 161.807C234.684 161.44 236.246 160.831 237.691 160.001C242.787 156.791 246.923 152.265 249.661 146.901L226.312 133.383C223.029 138.454 221.178 144.317 220.954 150.354Z" fill="#263238"/>
<path d="M255.056 125.075L248.493 121.29H248.432C245.52 119.644 241.526 119.889 237.102 122.446C232.68 125.181 228.986 128.946 226.336 133.42L249.686 146.938C252.249 142.385 253.67 137.278 253.827 132.056C253.821 130.668 253.652 129.286 253.323 127.939L255.056 125.075Z" fill="#455A64"/>
<path d="M243.307 125.997C234.41 131.134 227.184 143.644 227.184 153.93C227.184 164.216 234.41 168.382 243.307 163.245C252.205 158.108 259.492 145.574 259.492 135.312C259.492 125.051 252.217 120.86 243.307 125.997Z" fill="url(#paint5_linear_338_430)"/>
<path d="M251.517 148.289L235.111 157.764C234.914 157.875 234.767 157.764 234.767 157.432V142.882C234.763 142.741 234.792 142.601 234.852 142.473C234.911 142.345 235 142.233 235.111 142.145L251.517 132.67C251.701 132.559 251.861 132.67 251.861 133.002V147.564C251.863 147.703 251.833 147.841 251.773 147.967C251.713 148.093 251.626 148.203 251.517 148.289Z" fill="#FAFAFA"/>
<path d="M246.54 136.504C246.355 136.615 246.196 136.504 246.196 136.172V133.96L240.432 137.291V139.503C240.434 139.645 240.403 139.786 240.341 139.914C240.28 140.042 240.189 140.154 240.076 140.24C239.891 140.351 239.732 140.24 239.732 139.908V137.155C239.73 137.016 239.76 136.879 239.819 136.753C239.879 136.627 239.967 136.517 240.076 136.43L246.54 132.744C246.736 132.633 246.884 132.744 246.884 133.076V135.742C246.894 135.888 246.867 136.033 246.807 136.166C246.747 136.299 246.655 136.415 246.54 136.504Z" fill="#FAFAFA"/>
<path d="M246.54 133.764L240.076 137.45C239.891 137.561 239.731 137.45 239.731 137.119V135.89C239.73 135.749 239.761 135.61 239.82 135.482C239.88 135.355 239.967 135.242 240.076 135.152L246.54 131.466C246.736 131.355 246.884 131.466 246.884 131.797V133.026C246.887 133.168 246.858 133.308 246.799 133.436C246.739 133.564 246.65 133.676 246.54 133.764Z" fill="#FAFAFA"/>
<path d="M245.655 142.845L240.961 145.549C240.825 145.635 240.715 145.549 240.715 145.303V144.418C240.713 144.317 240.734 144.217 240.776 144.126C240.819 144.034 240.882 143.954 240.961 143.89L245.655 141.186C245.802 141.1 245.913 141.186 245.913 141.42V142.305C245.915 142.409 245.893 142.512 245.848 142.606C245.804 142.7 245.737 142.782 245.655 142.845Z" fill="url(#paint6_linear_338_430)"/>
<path d="M255.044 64.9576L248.432 61.1603H248.371C245.458 59.5136 241.464 59.7594 237.04 62.3155C228.131 67.4646 220.917 79.9625 220.917 90.2484C220.917 95.3852 222.711 98.9982 225.624 100.682L231.596 104.086L233.022 101.702C234.649 101.345 236.212 100.74 237.655 99.9075C246.552 94.7584 253.778 82.2605 253.778 71.9746C253.773 70.5832 253.604 69.1973 253.274 67.8455L255.044 64.9576Z" fill="#C599E5"/>
<path d="M220.954 90.273C220.954 95.4098 222.748 99.0227 225.661 100.706L231.633 104.11L233.058 101.726C234.686 101.37 236.248 100.764 237.691 99.9321C242.795 96.7039 246.93 92.1563 249.661 86.7706L226.312 73.2527C223.02 78.3376 221.169 84.2196 220.954 90.273Z" fill="#263238"/>
<path d="M255.056 64.9576L248.493 61.1603H248.432C245.52 59.5259 241.526 59.7594 237.102 62.3155C232.68 65.051 228.986 68.8163 226.336 73.2896L249.686 86.8075C252.233 82.2755 253.65 77.1956 253.815 71.9992C253.81 70.6078 253.641 69.2219 253.311 67.8701L255.056 64.9576Z" fill="#455A64"/>
<path d="M243.307 65.867C234.41 71.0161 227.184 83.514 227.184 93.7999C227.184 104.086 234.41 108.264 243.307 103.115C252.205 97.9658 259.492 85.4679 259.492 75.182C259.492 64.8961 252.217 60.7793 243.307 65.867Z" fill="url(#paint7_linear_338_430)"/>
<path d="M237.372 82.2359C237.372 79.901 238.601 77.3203 240.125 76.4109C241.649 75.5015 242.878 76.7182 242.878 79.0654C242.878 81.4126 241.649 83.981 240.125 84.8903C238.601 85.7997 237.372 84.5831 237.372 82.2359Z" fill="white"/>
<path d="M245.04 94.0334L234.914 99.883L235.455 93.1486C235.689 90.2853 237.2 87.3482 238.994 86.3159L240.948 85.1853C242.742 84.153 244.254 85.3328 244.487 87.9381L245.04 94.0334Z" fill="white"/>
<path d="M244.057 75.219C244.057 72.884 245.286 70.3034 246.81 69.394C248.334 68.4846 249.563 69.7012 249.563 72.0484C249.563 74.3956 248.334 76.964 246.81 77.8734C245.286 78.7828 244.057 77.5662 244.057 75.219Z" fill="white"/>
<path d="M251.701 87.0164L245.495 90.6048L245.212 87.3851C245.003 85.1239 243.983 83.6984 242.632 83.6984C243.107 81.9364 244.18 80.3944 245.667 79.3358L247.621 78.2175C249.415 77.1729 250.927 78.3526 251.16 80.9579L251.701 87.0164Z" fill="white"/>
<path d="M279.046 249.299C279.673 225.95 277.817 220.334 271.587 216.045L269.129 229.563C269.129 229.563 271.968 245.539 271.661 250.835C271.403 255.505 270.948 261.355 269.842 265.127C269.639 265.791 269.203 266.359 268.613 266.725C267.325 267.642 266.174 268.739 265.197 269.982C264.263 270.965 263.464 271.21 263.587 271.518C263.766 271.861 264.068 272.123 264.433 272.253C264.797 272.383 265.197 272.37 265.553 272.218C266.35 271.902 267.105 271.489 267.802 270.989C267.251 272.422 266.475 273.758 265.504 274.946C263.28 277.662 263.181 279.333 267.667 279.383C270.481 279.383 272.73 277.674 274.843 271.481C275.661 269.21 276.322 266.886 276.822 264.525C277.874 259.5 278.617 254.415 279.046 249.299Z" fill="#FFA8A7"/>
<path d="M266.352 214.275C268.263 213.934 270.234 214.222 271.967 215.098C273.701 215.973 275.102 217.388 275.962 219.13C278.567 223.787 279.206 231.812 279.501 239.787C279.501 239.787 274.327 244.125 268.109 241.999L266.352 214.275Z" fill="#1D1934"/>
<path d="M275.089 342.818C275.556 343.003 275.679 343.9 275.753 345.682C275.753 347.034 276.085 349.368 274.524 349.872C272.963 350.376 270.616 350.094 269.608 348.828C268.379 347.23 267.482 345.842 265.676 343.912C264.103 342.229 262.407 340.656 261.78 338.296C261.203 336.158 261.682 335.236 263.132 334.609C265.135 333.761 268.281 336.551 269.854 336.981C271.181 337.35 274.61 342.646 275.089 342.818Z" fill="#263238"/>
<path d="M275.089 341.172V343.359C274.267 343.887 273.316 344.179 272.339 344.205C271.362 344.231 270.396 343.99 269.547 343.507C269.449 343.298 268.969 340.373 268.969 340.373L275.089 341.172Z" fill="#FFA8A7"/>
<path d="M257.32 355.525C257.707 356.699 258.031 357.893 258.29 359.101C258.561 360.429 258.954 362.641 258.487 363.636C258.02 364.631 256.214 365.283 253.399 365.258C251.065 365.544 248.818 366.328 246.812 367.556C244.197 368.667 241.348 369.118 238.517 368.871C236.06 368.588 233.43 367.138 233.024 366.106C232.619 365.074 233.159 363.992 239.046 361.485C239.046 361.485 247.23 358.819 250.106 355.673L257.32 355.525Z" fill="#263238"/>
<path d="M257.319 353.067V355.623C257.319 356.557 256.238 357.946 253.387 357.836C251.396 357.762 249.995 357.233 250.081 355.587V353.215L257.319 353.067Z" fill="#FFA8A7"/>
<path d="M276.515 312.071C276.028 308.186 275.159 304.358 273.922 300.643C273.922 300.643 274.708 290.811 275.077 281.447C275.483 271.358 275.077 258.663 275.249 256.144C275.249 256.144 242.683 249.557 242.069 261.232C241.454 272.906 243.298 302.596 243.74 307.721C244.182 312.846 244.969 317.368 246.063 325.675C247.156 333.983 250.044 353.239 250.044 353.239C251.17 353.813 252.419 354.099 253.682 354.074C254.945 354.048 256.181 353.711 257.282 353.092C257.282 353.092 259.581 329.743 259.335 323.856C259.15 319.473 258.398 315.131 257.098 310.941C257.098 310.941 257.713 301.318 258.253 292.95C258.794 284.581 259.384 280.562 259.482 276.974L260.183 276.63C260.183 276.63 260.895 291.069 261.289 296.194C261.682 301.318 262.518 306.234 263.968 315.746C265.258 324.004 269.08 341.479 269.08 341.479C272.767 343.494 275.028 341.221 275.028 341.221C275.028 341.221 277.51 319.236 276.515 312.071Z" fill="#37474F"/>
<path d="M259.544 276.876C259.544 276.876 267.446 272.98 271.403 269.502C271.403 269.502 267.716 274.676 262.911 276.962C262.911 276.962 261.19 294.904 261.203 294.547L260.207 276.876H259.544Z" fill="#263238"/>
<path d="M252.514 210.576L254.444 221.182L264.017 220.481L262.014 208.463L252.514 210.576Z" fill="#FFA8A7"/>
<path d="M274.143 219.707C273.184 216.819 269.535 213.686 265.872 214.361C260.45 215.291 255.105 216.63 249.884 218.368C246.53 219.597 243.482 222.46 243.199 233.483C243.199 233.483 242.081 259.192 242.056 264.206C249.051 266.95 256.669 267.703 264.066 266.381C274.143 264.181 275.36 260.003 275.36 260.003C275.36 260.003 275.482 241.569 275.188 233.532C274.88 226.712 274.794 221.686 274.143 219.707Z" fill="#F5F5F5"/>
<path d="M245.116 197.673C245.116 197.673 242.659 201.544 242.991 201.913C243.322 202.281 245.141 202.576 245.141 202.576L245.116 197.673Z" fill="#FFA8A7"/>
<path d="M251.863 186.957C246.8 188.186 245.387 190.422 245.08 198.509C244.772 206.976 245.694 209.569 246.837 210.724C247.599 211.474 251.752 211.523 253.854 210.896C256.471 210.109 262.358 207.873 265.049 203.523C268.207 198.447 268.92 191.651 265.344 188.948C260.33 185.187 253.928 186.478 251.863 186.957Z" fill="#FFA8A7"/>
<path d="M245.141 189.071C246.305 190.766 247.948 192.075 249.86 192.831C250.831 193.937 250.29 198.251 251.998 198.976C251.998 198.976 252.736 195.83 255.378 196.161C258.02 196.493 258.462 199.848 256.84 201.962C255.218 204.076 253.645 203.301 253.645 203.301C253.645 203.301 253.829 207.762 255.869 210.245C257.988 210.657 260.175 210.556 262.247 209.95C264.779 209.348 268.306 206.079 269.744 202.675C272.791 195.486 272.865 189.071 268.269 187.252C267.704 183.971 265.086 182.557 262.124 181.955C255.746 180.64 251.642 184.622 246.739 184.266C243.924 184.032 243.396 186.084 245.141 189.071Z" fill="#263238"/>
<path d="M268.379 188.309L271.378 186.441C271.263 186.229 271.106 186.042 270.916 185.893C270.726 185.744 270.508 185.635 270.275 185.573C270.041 185.511 269.798 185.498 269.559 185.534C269.32 185.57 269.091 185.654 268.886 185.782C268.682 185.91 268.505 186.078 268.367 186.276C268.23 186.475 268.135 186.699 268.087 186.936C268.04 187.173 268.041 187.416 268.091 187.653C268.142 187.889 268.24 188.112 268.379 188.309Z" fill="#263238"/>
<path d="M209.331 237.465C210.904 238.165 229.46 251.88 232.36 250.282C235.261 248.685 250.093 231.333 250.093 231.333C251.347 229.394 252.014 227.134 252.014 224.826C252.014 222.517 251.347 220.257 250.093 218.318C247.194 218.945 244.618 220.599 242.843 222.976C240.385 226.736 229.595 240.181 229.595 240.181C226.941 238.853 224.287 237.502 221.657 236.138C219.482 235.007 217.294 233.889 215.168 232.672C214.569 232.402 214.007 232.055 213.497 231.64C212.44 230.607 212.624 228.088 212.649 226.724C212.64 226.088 212.669 225.452 212.735 224.819C212.833 224.033 212.981 222.128 211.567 222.73C211.304 222.862 211.076 223.056 210.904 223.296C210.681 223.583 210.511 223.908 210.4 224.254C210.13 225.077 210.216 225.987 209.982 226.81C209.953 226.936 209.889 227.051 209.798 227.142C209.738 227.194 209.667 227.234 209.591 227.257C209.515 227.28 209.435 227.287 209.355 227.277C207.315 227.216 205.374 224.352 204.44 222.829C204.1 222.105 203.563 221.492 202.891 221.059C202.3 220.88 201.666 220.904 201.089 221.127C200.513 221.35 200.027 221.758 199.709 222.288C198.825 223.614 198.462 225.22 198.689 226.798C198.871 228.941 199.817 230.947 201.355 232.451C203.705 234.57 206.403 236.266 209.331 237.465Z" fill="#FFA8A7"/>
<path d="M251.753 217.766C249.713 217.999 246.837 217.618 242.831 221.931C239.597 225.623 236.581 229.501 233.798 233.545C234.327 235.667 235.455 237.592 237.048 239.092C238.641 240.591 240.631 241.6 242.782 241.999C242.782 241.999 249.799 234.798 251.753 230.841C253.707 226.884 254.173 220.445 251.753 217.766Z" fill="#1D1934"/>
<defs>
<linearGradient id="paint0_linear_338_430" x1="140" y1="166" x2="140" y2="322" gradientUnits="userSpaceOnUse">
<stop stop-color="#D8D6DC"/>
<stop offset="1" stop-color="#D8D6DC" stop-opacity="0"/>
</linearGradient>
<radialGradient id="paint1_radial_338_430" cx="0" cy="0" r="1" gradientUnits="userSpaceOnUse" gradientTransform="translate(253 357) rotate(1.4321) scale(60.0187 47.4246)">
<stop stop-color="#D2D1D6"/>
<stop offset="1" stop-color="#E8E7EA" stop-opacity="0"/>
</radialGradient>
<linearGradient id="paint2_linear_338_430" x1="112.238" y1="7.93103" x2="112.238" y2="192.625" gradientUnits="userSpaceOnUse">
<stop stop-color="#00AEFF" stop-opacity="0.15"/>
<stop offset="1" stop-color="#6E00BE"/>
</linearGradient>
<linearGradient id="paint3_linear_338_430" x1="172.256" y1="42.4386" x2="172.256" y2="227.12" gradientUnits="userSpaceOnUse">
<stop stop-color="#00AEFF" stop-opacity="0.15"/>
<stop offset="1" stop-color="#6E00BE"/>
</linearGradient>
<linearGradient id="paint4_linear_338_430" x1="243.338" y1="3.52551" x2="243.338" y2="45.2649" gradientUnits="userSpaceOnUse">
<stop stop-color="#6E00BE"/>
<stop offset="1" stop-color="#B099E5"/>
</linearGradient>
<linearGradient id="paint5_linear_338_430" x1="243.338" y1="123.802" x2="243.338" y2="165.445" gradientUnits="userSpaceOnUse">
<stop stop-color="#6E00BE"/>
<stop offset="1" stop-color="#B099E5"/>
</linearGradient>
<linearGradient id="paint6_linear_338_430" x1="243.314" y1="141.154" x2="243.314" y2="145.581" gradientUnits="userSpaceOnUse">
<stop stop-color="#6E00BE"/>
<stop offset="1" stop-color="#B099E5"/>
</linearGradient>
<linearGradient id="paint7_linear_338_430" x1="243.338" y1="63.689" x2="243.338" y2="105.32" gradientUnits="userSpaceOnUse">
<stop stop-color="#6E00BE"/>
<stop offset="1" stop-color="#B099E5"/>
</linearGradient>
</defs>
</svg>
